<svg width="672" height="695" version="1.1" xmlns="http://www.w3.org/2000/svg" desc="Created with imagetracer.js version 1.2.6" ><path fill="rgb(182,233,251)" stroke="rgb(182,233,251)" stroke-width="1" opacity="1" d="M 331.5 8 L 364.5 9 L 365.5 10 L 382.5 11 L 404.5 15 L 442.5 26 L 473 39 Q 474.1 41.7 471.5 41 L 466.5 48 L 461.5 46 L 456 48 L 453 54.5 L 454 58.5 L 458.5 63 L 500.5 63 L 504 59.5 Q 503.2 56.9 506.5 58 Q 532.4 74.1 553 95.5 L 546.5 96 L 538 101.5 L 533.5 109 Q 531.2 105.8 524.5 107 L 517 112.5 Q 514.7 115.7 516 122.5 L 521.5 129 L 523.5 130 L 583.5 130 L 587 133.5 Q 617.9 174.6 635 229.5 L 641 253.5 L 645 276.5 L 646 296.5 L 647 297.5 L 647 337.5 L 646 338.5 L 646 348.5 L 645 349.5 L 644 364.5 L 642 370.5 L 640 385.5 L 627 428.5 Q 604.7 484.2 567.5 525 L 567 501.5 L 568 500.5 L 568 464 Q 579.9 458.6 588 448.5 Q 596.1 438.6 600 424.5 Q 598.7 419.8 601 418.5 L 601 401.5 Q 596.3 375.3 578.5 362 L 573 359 L 571 349 L 568.5 350 L 568 235 L 572 232.5 L 576 224.5 L 576 168 L 396.5 168 L 392.5 165 Q 386.5 166.5 385 163.5 L 385 161.5 L 379.5 155 Q 375.3 150.7 365.5 152 L 359 154 Q 357 144.8 349.5 140 Q 343.5 136 333.5 136 Q 320.8 138.3 315 147.5 L 311.5 154 Q 307.1 150.9 298.5 152 Q 291.3 153.8 288 159.5 Q 285.2 162.5 286 168 L 170.5 168 L 163.5 163 L 159.5 163 L 154 165 Q 153.1 159.1 148.5 156 L 143.5 153 L 136.5 152 L 129.5 154 L 123 159.5 L 121 165 L 115.5 163 L 111.5 163 L 104.5 168 L 86 168 L 86 225.5 L 93 235.5 L 93 244.5 L 94 245.5 L 94 505.5 L 93 505.5 Q 59.2 461.8 41 402.5 L 33 366.5 L 31 342.5 L 30 341.5 L 30 292.5 L 31 291.5 L 32 274.5 L 36 252.5 L 48 210.5 Q 65.2 165 92 130 L 158.5 130 Q 166.6 128.6 170 122.5 L 173 115.5 L 173 110.5 Q 171.2 102.8 165.5 99 Q 161.5 96 154.5 96 L 146 99 Q 143.8 89.5 136 84.5 Q 172.9 50.4 223.5 30 Q 246.4 20.9 272.5 15 L 294.5 11 L 302.5 11 L 312.5 9 L 330.5 9 L 331.5 8 Z M 261 51 L 252 56 Q 253 58 250 57 L 247 64 L 240 62 L 232 65 L 228 70 L 227 74 L 229 82 Q 232 86 239 87 L 290 87 L 298 83 L 300 79 Q 301 72 299 69 L 293 63 Q 285 62 282 64 L 278 58 L 271 52 L 261 51 Z " /><path fill="rgb(182,233,251)" stroke="rgb(182,233,251)" stroke-width="1" opacity="1" d="M 13.5 14 Q 15.8 14.8 15 18.5 Q 13.5 21.5 12 18.5 L 13 16 L 9 15.5 L 13.5 14 Z " /><path fill="rgb(182,233,251)" stroke="rgb(182,233,251)" stroke-width="1" opacity="1" d="M 36 14 Q 39 13 38 16 Q 35 17 36 14 Z " /><path fill="rgb(182,233,251)" stroke="rgb(182,233,251)" stroke-width="1" opacity="1" d="M 113.5 15 L 114.5 17 L 113.5 15 Z " /><path fill="rgb(182,233,251)" stroke="rgb(182,233,251)" stroke-width="1" opacity="1" d="M 16.5 17 L 17 23.5 L 16 23.5 L 16.5 17 Z " /><path fill="rgb(182,233,251)" stroke="rgb(182,233,251)" stroke-width="1" opacity="1" d="M 20.5 17 L 23 17.5 L 22 20.5 L 24 22.5 L 22.5 24 L 21 22.5 L 20.5 17 Z " /><path fill="rgb(182,233,251)" stroke="rgb(182,233,251)" stroke-width="1" opacity="1" d="M 26.5 17 L 28 20.5 L 26 19.5 L 26.5 17 Z " /><path fill="rgb(182,233,251)" stroke="rgb(182,233,251)" stroke-width="1" opacity="1" d="M 30.5 17 L 31 19 L 29 18.5 L 30.5 17 Z " /><path fill="rgb(182,233,251)" stroke="rgb(182,233,251)" stroke-width="1" opacity="1" d="M 35.5 17 Q 38.5 16.5 37 23.5 L 36 23.5 L 35.5 17 Z " /><path fill="rgb(182,233,251)" stroke="rgb(182,233,251)" stroke-width="1" opacity="1" d="M 48.5 17 L 49 19 L 47 18.5 L 48.5 17 Z " /><path fill="rgb(182,233,251)" stroke="rgb(182,233,251)" stroke-width="1" opacity="1" d="M 33.5 18 L 34.5 20 Q 31.7 20.7 33.5 18 Z " /><path fill="rgb(182,233,251)" stroke="rgb(182,233,251)" stroke-width="1" opacity="1" d="M 55.5 18 L 56.5 20 Q 53.7 20.7 55.5 18 Z " /><path fill="rgb(182,233,251)" stroke="rgb(182,233,251)" stroke-width="1" opacity="1" d="M 52.5 19 Q 54.8 18.3 54 20.5 L 55.5 23 L 54 22.5 L 53.5 24 L 53 22.5 L 53.5 21 L 48.5 22 L 49.5 20 L 52.5 19 Z " /><path fill="rgb(182,233,251)" stroke="rgb(182,233,251)" stroke-width="1" opacity="1" d="M 31.5 20 L 34 21 L 33.5 23 L 30 21.5 L 31.5 20 Z " /><path fill="rgb(182,233,251)" stroke="rgb(182,233,251)" stroke-width="1" opacity="1" d="M 27.5 22 L 26.5 24 L 27.5 22 Z " /><path fill="rgb(182,233,251)" stroke="rgb(182,233,251)" stroke-width="1" opacity="1" d="M 140.5 250 L 143 250.5 L 140.5 251 L 140.5 250 Z " /><path fill="rgb(182,233,251)" stroke="rgb(182,233,251)" stroke-width="1" opacity="1" d="M 148.5 251 L 152 251.5 L 148.5 252 L 148.5 251 Z " /><path fill="rgb(182,233,251)" stroke="rgb(182,233,251)" stroke-width="1" opacity="1" d="M 158.5 252 L 161 252.5 L 158.5 253 L 158.5 252 Z " /><path fill="rgb(182,233,251)" stroke="rgb(182,233,251)" stroke-width="1" opacity="1" d="M 173.5 254 L 178 254.5 L 173.5 255 L 173.5 254 Z " /><path fill="rgb(182,233,251)" stroke="rgb(182,233,251)" stroke-width="1" opacity="1" d="M 199.5 257 L 203 257.5 L 199.5 258 L 199.5 257 Z " /><path fill="rgb(182,233,251)" stroke="rgb(182,233,251)" stroke-width="1" opacity="1" d="M 209.5 258 L 212 258.5 L 209.5 259 L 209.5 258 Z " /><path fill="rgb(182,233,251)" stroke="rgb(182,233,251)" stroke-width="1" opacity="1" d="M 217.5 259 L 220 259.5 L 217.5 260 L 217.5 259 Z " /><path fill="rgb(182,233,251)" stroke="rgb(182,233,251)" stroke-width="1" opacity="1" d="M 225.5 260 L 229 260.5 L 225.5 261 L 225.5 260 Z " /><path fill="rgb(182,233,251)" stroke="rgb(182,233,251)" stroke-width="1" opacity="1" d="M 260.5 264 L 263 264.5 L 260.5 265 L 260.5 264 Z " /><path fill="rgb(182,233,251)" stroke="rgb(182,233,251)" stroke-width="1" opacity="1" d="M 227.5 272 L 228 500.5 L 226.5 502 L 212.5 502 L 212.5 501 L 226.5 501 L 227 500.5 L 227.5 272 Z " /><path fill="rgb(182,233,251)" stroke="rgb(182,233,251)" stroke-width="1" opacity="1" d="M 267.5 304 L 275 304.5 L 267.5 305 L 267.5 304 Z " /><path fill="rgb(182,233,251)" stroke="rgb(182,233,251)" stroke-width="1" opacity="1" d="M 392.5 307 L 395.5 311 L 392.5 307 Z " /><path fill="rgb(182,233,251)" stroke="rgb(182,233,251)" stroke-width="1" opacity="1" d="M 269.5 343 L 395 343.5 L 269.5 344 L 269.5 343 Z " /><path fill="rgb(182,233,251)" stroke="rgb(182,233,251)" stroke-width="1" opacity="1" d="M 430.5 349 L 431.5 351 L 430.5 349 Z " /><path fill="rgb(182,233,251)" stroke="rgb(182,233,251)" stroke-width="1" opacity="1" d="M 268.5 355 L 269 448.5 L 268 448.5 L 268.5 355 Z " /><path fill="rgb(182,233,251)" stroke="rgb(182,233,251)" stroke-width="1" opacity="1" d="M 456.5 378 L 459.5 382 L 457 380.5 Q 455.7 384.7 460.5 383 L 460.5 384 L 456 384 L 456.5 378 Z " /><path fill="rgb(182,233,251)" stroke="rgb(182,233,251)" stroke-width="1" opacity="1" d="M 260.5 459 L 261.5 461 L 260.5 459 Z " /><path fill="rgb(182,233,251)" stroke="rgb(182,233,251)" stroke-width="1" opacity="1" d="M 401.5 461 L 398.5 465 L 401.5 461 Z " /><path fill="rgb(182,233,251)" stroke="rgb(182,233,251)" stroke-width="1" opacity="1" d="M 265.5 464 L 266.5 466 L 265.5 464 Z " /><path fill="rgb(182,233,251)" stroke="rgb(182,233,251)" stroke-width="1" opacity="1" d="M 268.5 467 L 269 501 L 394 501.5 L 269.5 502 L 268 500.5 L 268.5 467 Z " /><path fill="rgb(182,233,251)" stroke="rgb(182,233,251)" stroke-width="1" opacity="1" d="M 129.5 501 L 199 501.5 L 129.5 502 L 129.5 501 Z " /><path fill="rgb(182,233,251)" stroke="rgb(182,233,251)" stroke-width="1" opacity="1" d="M 437.5 501 L 482 501.5 L 437.5 502 L 437.5 501 Z " /><path fill="rgb(182,233,251)" stroke="rgb(182,233,251)" stroke-width="1" opacity="1" d="M 491.5 501 L 526 501.5 L 491.5 502 L 491.5 501 Z " /><path fill="rgb(182,233,251)" stroke="rgb(182,233,251)" stroke-width="1" opacity="1" d="M 394.5 514 L 395 591.5 L 393.5 593 L 269.5 593 L 269.5 592 L 277.5 592 L 278 591.5 L 278 522 L 393.5 522 L 394 521.5 L 394.5 514 Z " /><path fill="rgb(182,233,251)" stroke="rgb(182,233,251)" stroke-width="1" opacity="1" d="M 74.5 523 L 75 526.5 L 74 526.5 L 74.5 523 Z " /><path fill="rgb(182,233,251)" stroke="rgb(182,233,251)" stroke-width="1" opacity="1" d="M 90.5 523 L 91 526.5 L 90 526.5 L 90.5 523 Z " /><path fill="rgb(182,233,251)" stroke="rgb(182,233,251)" stroke-width="1" opacity="1" d="M 74.5 546 L 75 549.5 L 74 549.5 L 74.5 546 Z " /><path fill="rgb(182,233,251)" stroke="rgb(182,233,251)" stroke-width="1" opacity="1" d="M 51.5 552 L 74 552.5 L 51.5 553 L 51.5 552 Z " /><path fill="rgb(182,233,251)" stroke="rgb(182,233,251)" stroke-width="1" opacity="1" d="M 67.5 568 L 68 571.5 L 67 571.5 L 67.5 568 Z " /><path fill="rgb(182,233,251)" stroke="rgb(182,233,251)" stroke-width="1" opacity="1" d="M 27.5 604 L 67 604.5 L 27 605 L 26.5 637 L 26 605.5 L 27.5 604 Z " /><path fill="rgb(182,233,251)" stroke="rgb(182,233,251)" stroke-width="1" opacity="1" d="M 82.5 604 L 88 604.5 L 82.5 605 L 82.5 604 Z " /><path fill="rgb(182,233,251)" stroke="rgb(182,233,251)" stroke-width="1" opacity="1" d="M 256.5 604 L 406 604.5 L 256.5 605 L 256.5 604 Z " /><path fill="rgb(182,233,251)" stroke="rgb(182,233,251)" stroke-width="1" opacity="1" d="M 575.5 604 L 647 604.5 L 575.5 605 L 575.5 604 Z " /><path fill="rgb(182,233,251)" stroke="rgb(182,233,251)" stroke-width="1" opacity="1" d="M 646.5 624 L 647 642 L 27 641.5 L 646 641 L 646.5 624 Z " /><path fill="rgb(191,70,21)" stroke="rgb(191,70,21)" stroke-width="1" opacity="1" d="M 87 187 L 574.5 187 L 575 187.5 L 575 225.5 L 569.5 234 L 567 235.5 L 566.5 237 L 564.5 236 L 563.5 237 L 555.5 237 L 547.5 232 L 541.5 232 L 533.5 237 L 525.5 237 L 516.5 232 L 511.5 232 L 503.5 237 L 495.5 237 L 487.5 232 L 480.5 232 Q 476.5 238.5 464.5 237 L 454.5 231 L 451.5 231 L 444.5 236 L 433.5 237 L 422.5 231 L 411.5 237 L 403.5 237 L 394.5 232 L 389.5 232 L 381.5 237 L 372.5 237 L 361.5 231 L 350.5 237 L 342.5 237 L 330.5 231 L 319.5 237 L 311.5 237 L 300.5 231 L 289.5 237 L 281.5 237 L 272.5 232 L 267.5 232 L 259.5 237 L 250.5 237 L 239.5 231 L 228.5 237 L 220.5 237 L 210.5 231 L 207.5 231 L 200.5 236 L 189.5 237 L 178.5 231 L 166.5 237 L 158.5 237 L 150.5 232 L 144.5 232 Q 140.5 238.5 128.5 237 L 120.5 232 L 114.5 232 L 106.5 237 L 98.5 237 Q 92.8 235.8 90 231.5 L 87 226.5 L 87 187 Z M 246 190 L 246 211 L 253 211 L 253 204 L 261 203 Q 266 202 264 194 L 261 190 L 246 190 Z M 266 190 L 266 211 L 273 211 L 274 210 L 274 203 L 279 203 L 279 210 L 281 211 Q 286 212 286 211 L 286 190 L 279 190 L 279 197 Q 272 200 274 192 L 273 190 L 266 190 Z M 295 190 L 288 210 L 289 211 L 295 211 L 297 208 Q 302 207 303 210 L 304 211 L 310 211 L 310 208 L 304 192 L 303 190 L 295 190 Z M 312 190 L 312 211 L 319 211 L 320 203 L 323 209 Q 325 213 332 211 Q 332 206 328 203 L 331 199 L 331 194 L 328 190 L 312 190 Z M 335 190 L 333 192 L 333 210 Q 334 212 339 211 L 340 210 L 341 203 L 342 210 Q 343 212 348 211 L 349 210 L 350 203 L 351 203 L 351 211 L 357 211 L 357 190 L 349 190 L 347 192 L 346 200 L 343 194 L 343 190 L 335 190 Z M 365 190 L 358 210 Q 359 212 365 211 L 366 208 L 373 208 L 373 210 Q 375 213 381 211 L 374 192 L 373 190 L 365 190 Z M 387 190 L 385 191 L 381 197 Q 380 205 383 209 L 387 211 Q 394 213 398 210 Q 401 208 401 203 L 398 202 L 394 204 Q 395 207 390 205 Q 386 204 388 198 L 392 195 L 396 198 L 399 197 Q 402 198 401 195 Q 399 188 387 190 Z M 402 190 L 409 202 L 409 210 Q 410 212 416 211 L 417 210 L 417 202 L 424 192 L 424 190 L 416 190 L 413 196 L 411 193 Q 409 188 402 190 Z " /><path fill="rgb(191,70,21)" stroke="rgb(191,70,21)" stroke-width="1" opacity="1" d="M 253 195 L 257 196.5 Q 257.8 198.8 255.5 198 L 253 199 L 253 195 Z " /><path fill="rgb(191,70,21)" stroke="rgb(191,70,21)" stroke-width="1" opacity="1" d="M 319 195 Q 324.6 193.1 323 198 Q 317.4 199.9 319 195 Z " /><path fill="rgb(191,70,21)" stroke="rgb(191,70,21)" stroke-width="1" opacity="1" d="M 369.5 198 L 371 201.5 L 368.5 202 L 369 200.5 L 369.5 198 Z " /><path fill="rgb(191,70,21)" stroke="rgb(191,70,21)" stroke-width="1" opacity="1" d="M 298 199 Q 301.3 197.9 300 202 Q 296.7 203.1 298 199 Z " /><path fill="rgb(191,70,21)" stroke="rgb(191,70,21)" stroke-width="1" opacity="1" d="M 94 245 L 127 248.5 L 116.5 249 L 115 250.5 L 115 506.5 L 116 507.5 L 94 508 L 94 245 Z " /><path fill="rgb(191,70,21)" stroke="rgb(191,70,21)" stroke-width="1" opacity="1" d="M 241 262 L 255 263 L 255 318 L 402.5 318 L 423 340.5 L 423 516 L 492.5 516 L 494.5 515 L 514 528.5 L 407 529 L 407 329.5 L 405.5 328 L 256.5 328 L 255 329.5 L 255 528.5 L 254.5 529 L 213 529 L 213 522 L 227.5 522 Q 231 520.5 230.5 515 L 231.5 516 L 239.5 516 L 241 514.5 L 241 262 Z " /><path fill="rgb(191,70,21)" stroke="rgb(191,70,21)" stroke-width="1" opacity="1" d="M 548.5 480 L 567 500.5 L 567 529 L 521.5 529 Q 520.5 529 521 524.5 L 524 516 L 548 516 L 548.5 480 Z " /><path fill="rgb(191,70,21)" stroke="rgb(191,70,21)" stroke-width="1" opacity="1" d="M 509.5 516 L 517 516.5 L 516 520 Q 510.1 519.5 509.5 516 Z " /><path fill="rgb(191,70,21)" stroke="rgb(191,70,21)" stroke-width="1" opacity="1" d="M 62.5 520 L 63.5 522 L 62.5 520 Z " /><path fill="rgb(191,70,21)" stroke="rgb(191,70,21)" stroke-width="1" opacity="1" d="M 94 522 L 196.5 522 L 197 525.5 L 198 529 L 94.5 529 L 94 528.5 L 94 522 Z " /><path fill="rgb(191,70,21)" stroke="rgb(191,70,21)" stroke-width="1" opacity="1" d="M 575.5 530 L 576.5 532 L 575.5 530 Z " /><path fill="rgb(191,70,21)" stroke="rgb(191,70,21)" stroke-width="1" opacity="1" d="M 230 533 L 248.5 533 L 250 534.5 L 250 543.5 L 248.5 545 L 229.5 545 L 229 543.5 L 230 542.5 L 230 533 Z " /><path fill="rgb(191,70,21)" stroke="rgb(191,70,21)" stroke-width="1" opacity="1" d="M 413 533 L 439.5 533 L 441 534.5 L 441 542 L 413.5 542 L 413 543.5 L 415 546.5 L 413 545.5 Q 410.7 542.3 412 535.5 L 413 533 Z " /><path fill="rgb(191,70,21)" stroke="rgb(191,70,21)" stroke-width="1" opacity="1" d="M 446.5 533 L 473 533 L 473 545 L 467 545 L 466.5 542 L 445 542 L 445 534.5 L 446.5 533 Z " /><path fill="rgb(191,70,21)" stroke="rgb(191,70,21)" stroke-width="1" opacity="1" d="M 479.5 533 L 504.5 533 L 506 534.5 L 506 545 L 479.5 545 L 478 543.5 L 478 534.5 L 479.5 533 Z " /><path fill="rgb(191,70,21)" stroke="rgb(191,70,21)" stroke-width="1" opacity="1" d="M 512.5 533 L 514 534.5 L 514 543.5 Q 512.5 546.5 511 543.5 L 511 534.5 L 512.5 533 Z " /><path fill="rgb(191,70,21)" stroke="rgb(191,70,21)" stroke-width="1" opacity="1" d="M 521 533 L 537.5 533 L 539 534.5 L 539 545 L 521 545 L 521 533 Z " /><path fill="rgb(191,70,21)" stroke="rgb(191,70,21)" stroke-width="1" opacity="1" d="M 545.5 533 L 570.5 533 L 572 534.5 L 572 545 L 545.5 545 L 544 543.5 L 544 534.5 L 545.5 533 Z " /><path fill="rgb(191,70,21)" stroke="rgb(191,70,21)" stroke-width="1" opacity="1" d="M 107 548 L 134.5 548 L 135 553 L 107.5 553 L 107 548 Z " /><path fill="rgb(191,70,21)" stroke="rgb(191,70,21)" stroke-width="1" opacity="1" d="M 140 548 L 167.5 548 L 168 553 L 140.5 553 L 140 548 Z " /><path fill="rgb(191,70,21)" stroke="rgb(191,70,21)" stroke-width="1" opacity="1" d="M 173 548 L 196.5 548 L 198 549.5 L 197.5 553 L 173 553 L 173 548 Z " /><path fill="rgb(191,70,21)" stroke="rgb(191,70,21)" stroke-width="1" opacity="1" d="M 213 548 L 233.5 548 L 234 553 L 213.5 553 L 213 548 Z " /><path fill="rgb(191,70,21)" stroke="rgb(191,70,21)" stroke-width="1" opacity="1" d="M 465 548 L 489.5 548 L 490 552 L 482 552 L 482 558.5 L 481.5 559 L 465 559 L 465 548 Z " /><path fill="rgb(191,70,21)" stroke="rgb(191,70,21)" stroke-width="1" opacity="1" d="M 495.5 548 L 513.5 548 L 514 552 L 494.5 552 L 494 549.5 L 495.5 548 Z " /><path fill="rgb(191,70,21)" stroke="rgb(191,70,21)" stroke-width="1" opacity="1" d="M 521 548 Q 524.7 546.8 523 552 Q 519.3 553.2 521 548 Z " /><path fill="rgb(191,70,21)" stroke="rgb(191,70,21)" stroke-width="1" opacity="1" d="M 528.5 548 L 554.5 548 L 556 549.5 L 556 557.5 L 554.5 559 L 553 558.5 L 553 552 L 527.5 552 L 527 549.5 L 528.5 548 Z " /><path fill="rgb(191,70,21)" stroke="rgb(191,70,21)" stroke-width="1" opacity="1" d="M 245 562 L 250 562 L 250 573 L 223.5 573 L 222 571.5 L 222.5 568 L 239.5 568 L 244 566 L 245 562 Z " /><path fill="rgb(191,70,21)" stroke="rgb(191,70,21)" stroke-width="1" opacity="1" d="M 413.5 562 L 415 562.5 L 415 573 L 412 571.5 L 412 563.5 L 413.5 562 Z " /><path fill="rgb(191,70,21)" stroke="rgb(191,70,21)" stroke-width="1" opacity="1" d="M 465 562 L 473 562 L 473 573 L 465 573 L 465 562 Z " /><path fill="rgb(191,70,21)" stroke="rgb(191,70,21)" stroke-width="1" opacity="1" d="M 478 562 L 482 562 L 482 566 L 486 566 L 486 567.5 L 487 573 L 479.5 573 L 478 571.5 L 478 562 Z " /><path fill="rgb(191,70,21)" stroke="rgb(191,70,21)" stroke-width="1" opacity="1" d="M 553 562 L 572 562 L 572 573 L 549.5 573 Q 548.4 572.9 549 567.5 L 553 566 L 553 562 Z " /><path fill="rgb(191,70,21)" stroke="rgb(191,70,21)" stroke-width="1" opacity="1" d="M 222 576 L 234 576 L 234 587 L 222 587 L 222 576 Z " /><path fill="rgb(191,70,21)" stroke="rgb(191,70,21)" stroke-width="1" opacity="1" d="M 465 576 L 487.5 576 L 488 577.5 L 490 585.5 L 488.5 587 L 465 587 L 465 576 Z " /><path fill="rgb(191,70,21)" stroke="rgb(191,70,21)" stroke-width="1" opacity="1" d="M 548 576 Q 554.1 574.3 556 577.5 L 556 585.5 L 554.5 587 L 546 587 L 546 582.5 L 548 576 Z " /><path fill="rgb(191,70,21)" stroke="rgb(191,70,21)" stroke-width="1" opacity="1" d="M 85.5 579 L 86 600.5 L 85 600.5 L 85.5 579 Z " /><path fill="rgb(191,70,21)" stroke="rgb(191,70,21)" stroke-width="1" opacity="1" d="M 107 579 L 133.5 579 L 135 580.5 Q 135.8 586.8 134.5 587 L 107 587 L 107 579 Z " /><path fill="rgb(191,70,21)" stroke="rgb(191,70,21)" stroke-width="1" opacity="1" d="M 140 579 L 166.5 579 L 168 580.5 Q 168.8 586.8 167.5 587 L 140 587 L 140 579 Z " /><path fill="rgb(191,70,21)" stroke="rgb(191,70,21)" stroke-width="1" opacity="1" d="M 173 579 L 199.5 579 L 201 580.5 Q 201.8 586.8 200.5 587 L 173 587 L 173 579 Z " /><path fill="rgb(191,70,21)" stroke="rgb(191,70,21)" stroke-width="1" opacity="1" d="M 206 579 L 209 580.5 L 209 587 L 206 587 L 206 579 Z " /><path fill="rgb(191,70,21)" stroke="rgb(191,70,21)" stroke-width="1" opacity="1" d="M 90 590 L 117.5 590 L 119 591.5 L 119 599.5 L 117.5 601 L 91.5 601 L 90 599.5 L 90 590 Z " /><path fill="rgb(191,70,21)" stroke="rgb(191,70,21)" stroke-width="1" opacity="1" d="M 123 590 L 151 590 L 151 601 L 124.5 601 L 123 599.5 L 123 590 Z " /><path fill="rgb(191,70,21)" stroke="rgb(191,70,21)" stroke-width="1" opacity="1" d="M 157.5 590 L 184 590 L 184 601 L 157.5 601 L 156 599.5 L 156 591.5 L 157.5 590 Z " /><path fill="rgb(191,70,21)" stroke="rgb(191,70,21)" stroke-width="1" opacity="1" d="M 189 590 L 207.5 590 L 209 591.5 L 209 599.5 L 207.5 601 L 189 601 L 189 590 Z " /><path fill="rgb(191,70,21)" stroke="rgb(191,70,21)" stroke-width="1" opacity="1" d="M 223.5 590 L 250 590 L 250 601 L 223.5 601 L 222 599.5 L 222 591.5 L 223.5 590 Z " /><path fill="rgb(191,70,21)" stroke="rgb(191,70,21)" stroke-width="1" opacity="1" d="M 413.5 590 L 415 590.5 L 415 599.5 L 415.5 601 L 412 599.5 L 412 591.5 L 413.5 590 Z " /><path fill="rgb(191,70,21)" stroke="rgb(191,70,21)" stroke-width="1" opacity="1" d="M 465 590 L 473 590 L 473 601 L 465 601 L 465 590 Z " /><path fill="rgb(191,70,21)" stroke="rgb(191,70,21)" stroke-width="1" opacity="1" d="M 478 590 L 490.5 590 L 491 592.5 L 493 601 L 478 601 L 478 590 Z " /><path fill="rgb(191,70,21)" stroke="rgb(191,70,21)" stroke-width="1" opacity="1" d="M 545 590 L 572 590 L 572 601 L 544.5 601 Q 543.3 600.8 544 594.5 L 545 590 Z " /><path fill="rgb(191,70,21)" stroke="rgb(191,70,21)" stroke-width="1" opacity="1" d="M 86.5 602 L 87.5 604 L 86.5 602 Z " /><path fill="rgb(214,61,56)" stroke="rgb(214,61,56)" stroke-width="1" opacity="1" d="M 101.5 168 L 103.5 168 L 283.5 169 L 286.5 168 L 573.5 168 L 575 169.5 L 575 186.5 L 574.5 187 L 87.5 187 L 87 187.5 L 87 222.5 L 86 222.5 L 86 187.5 L 87 186.5 L 87 169 L 100.5 169 L 101.5 168 Z " /><path fill="rgb(214,61,56)" stroke="rgb(214,61,56)" stroke-width="1" opacity="1" d="M 258.5 190 Q 263.5 189.5 264 193.5 L 263.5 196 L 260.5 191 Q 257.5 191.5 258.5 190 Z " /><path fill="rgb(214,61,56)" stroke="rgb(214,61,56)" stroke-width="1" opacity="1" d="M 266.5 190 L 267 210.5 L 266 210.5 L 266.5 190 Z " /><path fill="rgb(214,61,56)" stroke="rgb(214,61,56)" stroke-width="1" opacity="1" d="M 279.5 190 L 280 196.5 L 279 196.5 L 279.5 190 Z " /><path fill="rgb(214,61,56)" stroke="rgb(214,61,56)" stroke-width="1" opacity="1" d="M 302.5 190 L 304 192.5 L 303 192.5 L 302.5 190 Z " /><path fill="rgb(214,61,56)" stroke="rgb(214,61,56)" stroke-width="1" opacity="1" d="M 325.5 190 Q 330.5 189.5 331 193.5 L 331 198.5 L 328 202.5 L 331 207.5 L 330 207.5 L 326 201.5 L 330 198.5 Q 331.3 192.3 327.5 191 Q 324.5 191.5 325.5 190 Z " /><path fill="rgb(214,61,56)" stroke="rgb(214,61,56)" stroke-width="1" opacity="1" d="M 348.5 190 L 348 191.5 L 347.5 194 L 347 191.5 L 348.5 190 Z " /><path fill="rgb(214,61,56)" stroke="rgb(214,61,56)" stroke-width="1" opacity="1" d="M 395.5 190 L 398 191.5 L 396.5 191 L 395.5 190 Z " /><path fill="rgb(214,61,56)" stroke="rgb(214,61,56)" stroke-width="1" opacity="1" d="M 401.5 190 L 402.5 192 L 401.5 190 Z " /><path fill="rgb(214,61,56)" stroke="rgb(214,61,56)" stroke-width="1" opacity="1" d="M 423.5 190 L 424 191.5 L 422 192.5 L 423.5 190 Z " /><path fill="rgb(214,61,56)" stroke="rgb(214,61,56)" stroke-width="1" opacity="1" d="M 273.5 191 L 274 196.5 L 273 196.5 L 273.5 191 Z " /><path fill="rgb(214,61,56)" stroke="rgb(214,61,56)" stroke-width="1" opacity="1" d="M 333.5 191 L 334 209.5 L 333 209.5 L 333.5 191 Z " /><path fill="rgb(214,61,56)" stroke="rgb(214,61,56)" stroke-width="1" opacity="1" d="M 384.5 191 L 383.5 193 L 384.5 191 Z " /><path fill="rgb(214,61,56)" stroke="rgb(214,61,56)" stroke-width="1" opacity="1" d="M 399.5 193 L 401 196.5 L 400 196.5 L 399.5 193 Z " /><path fill="rgb(214,61,56)" stroke="rgb(214,61,56)" stroke-width="1" opacity="1" d="M 403.5 193 L 404.5 195 L 403.5 193 Z " /><path fill="rgb(214,61,56)" stroke="rgb(214,61,56)" stroke-width="1" opacity="1" d="M 421.5 194 L 420.5 196 L 421.5 194 Z " /><path fill="rgb(214,61,56)" stroke="rgb(214,61,56)" stroke-width="1" opacity="1" d="M 318.5 195 L 319 197.5 L 318 197.5 L 318.5 195 Z " /><path fill="rgb(214,61,56)" stroke="rgb(214,61,56)" stroke-width="1" opacity="1" d="M 323.5 195 L 324 197.5 L 323 197.5 L 323.5 195 Z " /><path fill="rgb(214,61,56)" stroke="rgb(214,61,56)" stroke-width="1" opacity="1" d="M 346.5 195 L 347 197.5 L 346 197.5 L 346.5 195 Z " /><path fill="rgb(214,61,56)" stroke="rgb(214,61,56)" stroke-width="1" opacity="1" d="M 389.5 195 L 391 195.5 L 388.5 197 L 389.5 195 Z " /><path fill="rgb(214,61,56)" stroke="rgb(214,61,56)" stroke-width="1" opacity="1" d="M 393.5 195 L 398 197.5 L 395.5 198 L 393.5 195 Z " /><path fill="rgb(214,61,56)" stroke="rgb(214,61,56)" stroke-width="1" opacity="1" d="M 405.5 196 L 406.5 198 L 405.5 196 Z " /><path fill="rgb(214,61,56)" stroke="rgb(214,61,56)" stroke-width="1" opacity="1" d="M 299.5 197 L 300 199 L 298 198.5 L 299.5 197 Z " /><path fill="rgb(214,61,56)" stroke="rgb(214,61,56)" stroke-width="1" opacity="1" d="M 419.5 197 L 418.5 199 L 419.5 197 Z " /><path fill="rgb(214,61,56)" stroke="rgb(214,61,56)" stroke-width="1" opacity="1" d="M 263.5 198 L 264 199.5 L 260 202.5 L 263.5 198 Z " /><path fill="rgb(214,61,56)" stroke="rgb(214,61,56)" stroke-width="1" opacity="1" d="M 339.5 198 L 341 202.5 Q 338.5 204 340 209.5 L 338.5 211 L 339 209.5 L 339.5 198 Z " /><path fill="rgb(214,61,56)" stroke="rgb(214,61,56)" stroke-width="1" opacity="1" d="M 350.5 199 L 351 201.5 L 350 201.5 L 350.5 199 Z " /><path fill="rgb(214,61,56)" stroke="rgb(214,61,56)" stroke-width="1" opacity="1" d="M 407.5 199 L 408.5 201 L 407.5 199 Z " /><path fill="rgb(214,61,56)" stroke="rgb(214,61,56)" stroke-width="1" opacity="1" d="M 417.5 200 L 417 201.5 L 417 209.5 L 415.5 211 L 416 209.5 L 416 201.5 L 417.5 200 Z " /><path fill="rgb(214,61,56)" stroke="rgb(214,61,56)" stroke-width="1" opacity="1" d="M 297.5 201 L 299.5 202 L 301 201.5 L 301 203 L 297 203 L 297.5 201 Z " /><path fill="rgb(214,61,56)" stroke="rgb(214,61,56)" stroke-width="1" opacity="1" d="M 274.5 202 Q 279 201 280 203.5 L 279.5 210 L 279 203 L 274 203 L 274 209.5 L 272 210.5 Q 274.5 209 273 203.5 L 274.5 202 Z " /><path fill="rgb(214,61,56)" stroke="rgb(214,61,56)" stroke-width="1" opacity="1" d="M 368.5 202 L 371 202.5 L 368.5 203 L 368.5 202 Z " /><path fill="rgb(214,61,56)" stroke="rgb(214,61,56)" stroke-width="1" opacity="1" d="M 395.5 202 L 398 202.5 L 395 203 L 393.5 206 Q 389 207 388 204.5 L 389.5 205 Q 394.9 206.9 394 203.5 L 395.5 202 Z " /><path fill="rgb(214,61,56)" stroke="rgb(214,61,56)" stroke-width="1" opacity="1" d="M 409.5 202 L 410 209.5 L 409 209.5 L 409.5 202 Z " /><path fill="rgb(214,61,56)" stroke="rgb(214,61,56)" stroke-width="1" opacity="1" d="M 253.5 203 L 259 203.5 L 253.5 204 L 253.5 203 Z " /><path fill="rgb(214,61,56)" stroke="rgb(214,61,56)" stroke-width="1" opacity="1" d="M 318.5 203 L 319 210.5 L 318 210.5 L 318.5 203 Z " /><path fill="rgb(214,61,56)" stroke="rgb(214,61,56)" stroke-width="1" opacity="1" d="M 320.5 203 L 321.5 205 L 320.5 203 Z " /><path fill="rgb(214,61,56)" stroke="rgb(214,61,56)" stroke-width="1" opacity="1" d="M 296.5 207 Q 301.8 205.8 303 208.5 L 301.5 208 Q 296.8 206.8 295.5 209 L 296.5 207 Z " /><path fill="rgb(214,61,56)" stroke="rgb(214,61,56)" stroke-width="1" opacity="1" d="M 348.5 207 L 349 209.5 L 347 210.5 L 348.5 207 Z " /><path fill="rgb(214,61,56)" stroke="rgb(214,61,56)" stroke-width="1" opacity="1" d="M 366.5 207 L 373 207.5 L 366.5 208 L 366.5 207 Z " /><path fill="rgb(214,61,56)" stroke="rgb(214,61,56)" stroke-width="1" opacity="1" d="M 116.5 249 L 116 250.5 L 115.5 507 L 115 250.5 L 116.5 249 Z " /><path fill="rgb(214,61,56)" stroke="rgb(214,61,56)" stroke-width="1" opacity="1" d="M 240.5 263 L 241 514.5 L 239.5 516 L 231.5 516 L 231.5 515 L 239.5 515 L 240 514.5 L 240.5 263 Z " /><path fill="rgb(214,61,56)" stroke="rgb(214,61,56)" stroke-width="1" opacity="1" d="M 256.5 328 L 406 328.5 L 256.5 329 L 256.5 328 Z " /><path fill="rgb(214,61,56)" stroke="rgb(214,61,56)" stroke-width="1" opacity="1" d="M 61.5 512 L 62 518.5 L 61 518.5 L 61.5 512 Z " /><path fill="rgb(214,61,56)" stroke="rgb(214,61,56)" stroke-width="1" opacity="1" d="M 423.5 515 L 493 515.5 L 423.5 516 L 423.5 515 Z " /><path fill="rgb(214,61,56)" stroke="rgb(214,61,56)" stroke-width="1" opacity="1" d="M 508.5 515 L 517 515.5 L 508.5 516 L 508.5 515 Z " /><path fill="rgb(214,61,56)" stroke="rgb(214,61,56)" stroke-width="1" opacity="1" d="M 525.5 515 L 548 515.5 L 525.5 516 L 525.5 515 Z " /><path fill="rgb(214,61,56)" stroke="rgb(214,61,56)" stroke-width="1" opacity="1" d="M 70.5 522 L 75 522.5 L 70.5 523 L 70.5 522 Z " /><path fill="rgb(214,61,56)" stroke="rgb(214,61,56)" stroke-width="1" opacity="1" d="M 90.5 522 L 94 522.5 L 90.5 523 L 90.5 522 Z " /><path fill="rgb(214,61,56)" stroke="rgb(214,61,56)" stroke-width="1" opacity="1" d="M 61.5 535 L 62 541.5 L 61 541.5 L 61.5 535 Z " /><path fill="rgb(214,61,56)" stroke="rgb(214,61,56)" stroke-width="1" opacity="1" d="M 79.5 540 L 80.5 542 L 79.5 540 Z " /><path fill="rgb(214,61,56)" stroke="rgb(214,61,56)" stroke-width="1" opacity="1" d="M 62.5 543 L 63.5 545 L 62.5 543 Z " /><path fill="rgb(214,61,56)" stroke="rgb(214,61,56)" stroke-width="1" opacity="1" d="M 238.5 651 L 244 653.5 Q 244.5 658 241 658.5 L 241 662.5 Q 242.5 665.5 248.5 664 Q 250.8 663.3 250 659.5 L 247 653.5 L 248.5 652 L 261.5 652 L 263 655.5 L 260 657 L 260 676.5 L 263 680.5 Q 259.6 685.1 249.5 683 L 247 682 L 247 678 Q 250 679.3 249 675.5 L 250 670.5 Q 248.5 667.5 242.5 669 Q 239.8 670.3 241 675.5 L 244 680.5 Q 240.6 685.1 230.5 683 L 228 682 L 228 678 L 229.5 678 L 231 676.5 L 231 658.5 L 228 654.5 L 231.5 652 Q 237 653.5 238.5 651 Z " /><path fill="rgb(214,61,56)" stroke="rgb(214,61,56)" stroke-width="1" opacity="1" d="M 279.5 651 Q 285.7 650.3 287 654.5 L 298 676.5 L 300.5 679 Q 302.8 678.3 302 680.5 L 298.5 683 L 285.5 683 L 284 679 Q 287.3 680.1 286 676 Q 283.3 674.1 276.5 675 Q 272 677 275.5 679 Q 278.5 678.2 277 682 Q 273.7 684.1 265.5 683 L 264 679 L 268 678 L 275 662.5 L 276 654.5 L 279.5 651 Z M 280 664 L 277 669 L 278 670 L 284 670 L 283 667 L 280 664 Z " /><path fill="rgb(214,61,56)" stroke="rgb(214,61,56)" stroke-width="1" opacity="1" d="M 346.5 651 L 351 652 L 358.5 665 Q 363.8 660.7 365 653 Q 368 651 375.5 652 L 377 655.5 L 375 657.5 L 374 670.5 Q 376.5 672 375 677.5 L 377.5 680 L 383 676.5 L 389 664.5 L 391 653.5 L 392.5 652 L 396.5 651 L 403 656.5 L 413 678 L 416 679.5 Q 417.1 682.8 414.5 682 L 413.5 683 L 400.5 683 Q 395.3 680.3 401 677.5 Q 401.8 675.3 399.5 676 L 398.5 675 L 390.5 675 L 389 679 L 392 680.5 L 389.5 683 L 380.5 683 L 377.5 681 L 375.5 683 L 364.5 683 Q 359.8 680.8 364 678.5 L 365 669 L 362 670.5 L 357 682 Q 354.3 683.1 355 680.5 L 348.5 668 L 347 669.5 L 347 677.5 L 350 679 Q 351.5 682.8 348.5 682 Q 346.8 684.8 340.5 683 L 339 679 Q 341.7 680.1 341 677.5 L 342 676.5 L 342 658.5 Q 338.5 658 339 653.5 L 340.5 652 Q 345.3 653.2 346.5 651 Z M 395 663 L 392 667 L 392 670 L 398 670 Q 398 665 395 663 Z " /><path fill="rgb(214,61,56)" stroke="rgb(214,61,56)" stroke-width="1" opacity="1" d="M 431.5 651 L 441.5 654 L 443.5 653 Q 448.1 654.9 447 662.5 Q 446.3 665.8 441.5 665 L 435.5 658 L 432.5 657 L 428 659.5 L 427 666.5 L 431.5 674 L 440.5 675 L 444.5 672 Q 447 673 446 677.5 Q 444 681.2 442 679.5 Q 442.8 681.8 440.5 681 Q 436.8 684.3 428.5 683 Q 421.3 681.2 418 675.5 Q 415 671.5 416 663.5 Q 417.6 656.6 423.5 654 L 431.5 651 Z " /><path fill="rgb(214,61,56)" stroke="rgb(214,61,56)" stroke-width="1" opacity="1" d="M 198.5 652 L 218.5 652 L 225 656.5 L 226 664.5 L 222.5 669 Q 218.3 672.5 210 671 L 210 677.5 L 211.5 678 L 213 682 Q 208.5 684 199.5 683 L 197 679.5 L 200 678 L 200 657.5 L 198.5 656 L 196 654.5 Q 195.3 652.3 197.5 653 L 198.5 652 Z M 212 656 L 210 658 L 210 666 L 215 666 Q 218 664 216 659 L 212 656 Z " /><path fill="rgb(214,61,56)" stroke="rgb(214,61,56)" stroke-width="1" opacity="1" d="M 304.5 652 L 326.5 652 L 332 656.5 L 332 662.5 L 328 668 L 333 671.5 L 334 678 L 337 679.5 L 335.5 683 Q 327.3 684.1 324 682 L 319.5 670 L 316 670 L 316 676.5 L 319 680.5 L 316.5 683 L 305.5 683 L 303 682 Q 302.4 677.4 306 675.5 L 306 657.5 L 303 656 L 304.5 652 Z M 318 656 L 316 658 L 316 665 L 320 665 Q 322 664 321 659 L 318 656 Z " /><path fill="rgb(214,61,56)" stroke="rgb(214,61,56)" stroke-width="1" opacity="1" d="M 449.5 652 L 465.5 652 L 467 653.5 L 466 658.5 L 469.5 660 Q 471.8 659.3 471 655.5 L 470 653.5 L 471.5 652 L 483 652 L 484 654.5 L 475 660.5 Q 469 664.5 471 676.5 L 474 678 L 474 682 L 472.5 682 L 471.5 683 L 459.5 683 L 456 680.5 L 457.5 678 Q 460.1 678.8 459 675.5 Q 461.7 673.8 460 667.5 Q 457 660 450.5 656 Q 446.8 657.3 448 653.5 L 449.5 652 Z " /><path fill="rgb(90,152,91)" stroke="rgb(90,152,91)" stroke-width="1" opacity="1" d="M 134.5 249 L 138 249.5 L 134.5 250 L 134.5 249 Z " /><path fill="rgb(90,152,91)" stroke="rgb(90,152,91)" stroke-width="1" opacity="1" d="M 255.5 250 L 256 262.5 L 255 262.5 L 255.5 250 Z " /><path fill="rgb(90,152,91)" stroke="rgb(90,152,91)" stroke-width="1" opacity="1" d="M 407.5 250 L 408 316.5 L 407 316.5 L 407.5 250 Z " /><path fill="rgb(90,152,91)" stroke="rgb(90,152,91)" stroke-width="1" opacity="1" d="M 423.5 250 L 424 340.5 L 423 340.5 L 423.5 250 Z " /><path fill="rgb(90,152,91)" stroke="rgb(90,152,91)" stroke-width="1" opacity="1" d="M 547.5 250 L 548 350 L 565.5 353 Q 566.8 349.3 571 350 L 574.5 360 L 586 369.5 Q 594.8 379.2 599 393.5 L 601 403.5 L 601 416.5 Q 596.8 441.3 581.5 455 Q 572.5 463 560.5 468 L 548 470 L 547.5 479 L 547 471 Q 543.7 469.7 545 474.5 L 544 474.5 L 544 471 L 537.5 471 L 535.5 470 L 533.5 471 L 522.5 468 L 513 481.5 L 513 483.5 L 513.5 485 L 508.5 485 L 499.5 491 L 487.5 494 L 470.5 491 Q 460.4 486.6 454 478.5 L 447 465.5 L 446 452.5 L 444 448 L 447 446.5 L 447 442.5 L 450 435.5 L 461.5 422 L 465 419.5 Q 463.5 412.5 466.5 413 L 472.5 416 L 476.5 416 L 479 415 L 479 404.5 L 481 395.5 L 479 384 L 462 383.5 L 479 383 Q 477.9 380.3 480.5 381 L 484.5 383 L 487 379 L 462.5 379 L 462 378.5 L 462 299 L 519 299 L 519 351.5 L 521.5 352 L 534 350 L 534 263 L 437 263 L 436.5 356 L 436 262 L 535 262 L 535 348.5 L 535.5 349 L 547 349 L 547.5 250 Z M 481 311 L 483 315 L 498 315 L 499 314 L 499 311 L 481 311 Z M 482 316 Q 484 321 480 320 L 477 324 L 477 350 L 478 351 L 479 352 L 502 352 L 503 350 L 503 324 L 501 320 Q 497 321 498 318 L 497 316 L 482 316 Z M 471 358 L 469 360 L 471 363 L 502 363 L 507 359 L 471 358 Z M 472 364 L 470 366 L 471 368 L 470 370 L 494 370 L 495 369 L 472 368 L 497 367 L 499 365 L 472 364 Z " /><path fill="rgb(90,152,91)" stroke="rgb(90,152,91)" stroke-width="1" opacity="1" d="M 266.5 262 L 267 264.5 L 266 264.5 L 266.5 262 Z " /><path fill="rgb(90,152,91)" stroke="rgb(90,152,91)" stroke-width="1" opacity="1" d="M 478 329 L 501 329 L 501 343 L 479.5 343 L 478 341.5 L 478 329 Z M 479 330 L 479 342 L 500 342 L 500 330 L 493 331 L 495 331 L 495 333 L 492 331 L 489 337 Q 487 340 485 336 L 489 334 L 491 331 L 479 330 Z M 487 335 L 488 337 Q 489 334 487 335 Z " /><path fill="rgb(90,152,91)" stroke="rgb(90,152,91)" stroke-width="1" opacity="1" d="M 175.5 352 L 189.5 352 L 192 353 L 192 364 L 201.5 364 L 204 365 L 204 382.5 L 202.5 383 L 201.5 384 L 192 384 L 192 394.5 L 190.5 395 L 189.5 396 L 175.5 396 L 173 393.5 L 173 384 L 163.5 384 L 161 381.5 L 161 366.5 L 163.5 364 L 173 364 L 173 354.5 L 175.5 352 Z M 179 358 L 179 369 L 178 370 L 167 370 L 167 378 L 178 378 L 179 380 L 179 390 L 186 390 L 187 389 L 187 380 L 189 378 L 198 378 L 198 370 L 189 370 L 187 369 L 187 358 L 179 358 Z " /><path fill="rgb(90,152,91)" stroke="rgb(90,152,91)" stroke-width="1" opacity="1" d="M 394.5 353 L 395 451.5 L 392 453.5 L 394 451.5 L 394.5 353 Z " /><path fill="rgb(90,152,91)" stroke="rgb(90,152,91)" stroke-width="1" opacity="1" d="M 308.5 393 Q 317.1 391.9 319 397.5 L 320 404.5 L 318 409 L 314.5 411 L 307.5 411 L 303 407.5 L 302 398.5 L 304.5 395 L 308.5 393 Z M 308 398 L 307 401 Q 306 406 310 407 L 314 406 L 315 404 L 314 400 Q 313 397 308 398 Z " /><path fill="rgb(90,152,91)" stroke="rgb(90,152,91)" stroke-width="1" opacity="1" d="M 323.5 394 Q 332.2 392.3 335 396.5 Q 335.6 401.9 334 404 L 327 405 L 327 410 L 325.5 410 L 323.5 411 L 322 409.5 L 322 395.5 L 323.5 394 Z M 327 398 Q 326 403 330 401 Q 332 397 327 398 Z " /><path fill="rgb(90,152,91)" stroke="rgb(90,152,91)" stroke-width="1" opacity="1" d="M 338.5 394 L 347 394 L 347 398 L 342 398 L 342 400 Q 345.8 399 347 401.5 L 345.5 404 Q 340.7 402.7 342 406 Q 345.8 405 347 407.5 L 345.5 411 Q 338.5 412.5 337 408.5 L 337 395.5 L 338.5 394 Z " /><path fill="rgb(90,152,91)" stroke="rgb(90,152,91)" stroke-width="1" opacity="1" d="M 351.5 394 Q 356.3 393.3 357 396.5 L 359.5 401 L 361 394 L 365 394 L 365 395.5 Q 367.5 397 366 402.5 L 365 403.5 L 365 410 L 361.5 411 L 359 410 L 354.5 402 L 354 409.5 L 352.5 411 L 350 409.5 L 350 395.5 L 351.5 394 Z " /><path fill="rgb(90,152,91)" stroke="rgb(90,152,91)" stroke-width="1" opacity="1" d="M 268.5 463 L 269 465.5 L 268 465.5 L 268.5 463 Z " /><path fill="rgb(90,152,91)" stroke="rgb(90,152,91)" stroke-width="1" opacity="1" d="M 275.5 464 L 389 464.5 L 275.5 465 L 275.5 464 Z " /><path fill="rgb(90,152,91)" stroke="rgb(90,152,91)" stroke-width="1" opacity="1" d="M 394.5 466 L 395 500.5 L 394 500.5 L 394.5 466 Z " /><path fill="rgb(90,152,91)" stroke="rgb(90,152,91)" stroke-width="1" opacity="1" d="M 81.5 498 L 84 498.5 L 81.5 499 L 81.5 498 Z " /><path fill="rgb(90,152,91)" stroke="rgb(90,152,91)" stroke-width="1" opacity="1" d="M 532.5 505 L 528.5 510 L 532.5 505 Z " /><path fill="rgb(90,152,91)" stroke="rgb(90,152,91)" stroke-width="1" opacity="1" d="M 85.5 517 L 84.5 519 L 85.5 517 Z " /><path fill="rgb(90,152,91)" stroke="rgb(90,152,91)" stroke-width="1" opacity="1" d="M 466.5 542 L 467 545.5 L 466 545.5 L 466.5 542 Z " /><path fill="rgb(90,152,91)" stroke="rgb(90,152,91)" stroke-width="1" opacity="1" d="M 415.5 546 L 465 546 L 465 596 L 415.5 596 Q 414.4 595.9 415 590.5 L 416 589.5 L 416 573.5 L 415 572.5 L 415 562.5 L 416 561.5 L 416 547.5 L 415.5 546 Z " /><path fill="rgb(90,152,91)" stroke="rgb(90,152,91)" stroke-width="1" opacity="1" d="M 88.5 604 L 89.5 605 L 419.5 605 L 420.5 604 L 459.5 604 L 460.5 605 L 646 605 L 646 623.5 L 645.5 624 L 34.5 624 L 33.5 623 L 27 623 L 28 617.5 L 28 605 L 87.5 605 L 88.5 604 Z " /><path fill="rgb(254,254,254)" stroke="rgb(254,254,254)" stroke-width="1" opacity="1" d="M 0 0 L 672 0 L 672 695 L 0 695 L 0 0 Z M 332 8 L 331 9 L 313 9 L 303 11 L 295 11 L 273 15 Q 246 21 224 30 Q 173 50 136 85 Q 144 89 146 99 L 155 96 Q 161 96 166 99 Q 171 103 173 111 L 173 116 L 170 123 Q 167 129 159 130 L 92 130 Q 65 165 48 211 L 36 253 L 32 275 L 31 292 L 30 293 L 30 342 L 31 343 L 33 367 L 41 403 Q 59 462 93 506 L 94 507 Q 88 509 90 503 L 85 498 L 79 499 Q 74 501 75 507 L 66 507 L 61 511 Q 60 519 62 522 Q 66 524 74 523 L 75 530 L 66 530 L 64 531 L 61 534 L 61 543 L 65 546 L 74 546 L 75 552 L 52 552 L 44 558 L 45 565 L 50 568 L 67 568 L 68 573 L 68 604 L 28 604 L 26 606 L 26 637 L 27 642 L 647 642 L 647 642 L 647 604 L 576 604 L 578 601 L 578 534 L 577 530 Q 574 528 567 529 L 568 524 Q 588 502 604 476 L 617 452 L 627 429 L 640 386 L 642 371 L 644 365 L 645 350 L 646 349 L 646 339 L 647 338 L 647 298 L 646 297 L 645 277 L 641 254 L 635 230 Q 618 175 587 134 L 584 130 L 524 130 L 522 129 L 516 123 Q 515 116 517 113 L 525 107 Q 531 106 534 109 L 538 102 L 547 96 L 553 96 Q 532 74 507 58 Q 503 57 504 60 L 501 63 L 459 63 L 454 59 L 453 55 L 456 48 L 462 46 L 467 48 L 472 41 Q 474 42 473 39 L 443 26 L 405 15 L 383 11 L 366 10 L 365 9 L 332 8 Z M 8 14 L 8 24 L 9 24 Q 7 18 14 20 Q 16 19 15 16 Q 13 12 8 14 Z M 36 14 Q 35 17 38 16 Q 39 13 36 14 Z M 114 15 L 113 17 L 119 21 L 123 16 L 119 19 L 114 15 Z M 16 17 L 16 24 Q 20 25 18 20 L 21 18 L 16 17 Z M 23 17 Q 20 18 21 23 Q 22 25 27 24 L 28 22 L 25 23 L 24 21 Q 29 23 28 19 Q 27 16 23 17 Z M 29 17 L 31 23 Q 30 25 33 24 L 35 19 L 36 19 Q 34 25 38 24 L 38 17 L 35 17 L 33 21 L 31 20 Q 32 16 29 17 Z M 42 17 L 39 21 L 40 23 Q 41 25 45 24 L 46 22 L 43 23 L 42 21 Q 47 23 46 19 Q 45 16 42 17 Z M 47 17 L 49 24 Q 52 25 51 23 L 53 22 Q 52 25 55 24 L 57 20 L 57 17 L 55 21 L 53 17 Q 50 16 51 20 Q 48 21 49 17 L 47 17 Z M 214 651 L 213 652 L 198 652 L 196 656 L 200 657 L 200 677 L 197 680 L 199 683 L 211 683 L 213 682 Q 214 678 210 677 L 210 672 Q 217 673 222 670 L 226 665 L 226 658 L 224 654 L 214 651 Z M 234 651 L 228 653 L 227 656 L 230 657 L 231 660 Q 233 674 227 680 L 230 683 L 242 683 L 244 681 L 241 675 L 241 672 L 245 669 Q 248 668 249 671 Q 251 678 246 680 L 249 683 L 261 683 L 263 681 L 260 677 L 260 660 L 263 654 L 259 651 L 249 652 Q 244 654 247 656 Q 246 658 249 657 L 249 664 L 242 664 L 242 658 L 244 657 L 245 655 L 244 652 Q 241 650 234 651 Z M 280 651 L 278 652 L 276 654 L 275 662 L 268 677 L 264 680 L 266 683 L 276 683 L 277 682 L 275 676 L 286 676 L 286 678 Q 280 680 286 683 L 300 683 L 302 682 Q 303 680 305 683 L 318 683 L 319 682 L 316 672 L 319 670 L 323 681 L 328 684 L 336 683 Q 338 679 340 683 L 349 683 L 350 682 L 348 678 L 349 669 L 354 681 L 357 682 L 363 670 L 365 671 Q 366 677 362 680 L 364 683 L 376 683 L 377 682 L 380 683 L 391 683 L 392 682 Q 393 678 391 679 Q 388 678 391 676 L 400 676 L 401 678 L 400 678 L 398 682 L 400 683 L 415 683 L 417 680 L 415 678 L 402 655 Q 400 650 394 651 L 390 655 L 390 661 L 383 677 L 381 678 L 379 680 L 375 677 L 375 659 Q 379 658 378 654 L 375 651 L 367 652 L 359 665 L 352 654 L 349 651 Q 342 650 340 653 Q 337 652 338 656 L 341 657 L 342 660 L 341 678 L 339 680 L 336 678 L 334 677 L 333 671 L 328 667 L 330 666 L 333 661 L 332 657 Q 329 652 324 651 Q 319 650 318 652 L 310 652 L 309 651 L 302 654 L 306 661 L 305 677 L 303 679 L 300 678 L 288 656 L 284 651 L 280 651 Z M 430 651 L 423 654 L 416 663 Q 414 673 419 678 Q 423 683 432 684 L 444 681 L 447 676 L 446 672 L 439 675 L 433 674 Q 428 671 427 666 Q 426 659 431 658 L 437 659 L 440 665 L 443 666 L 447 664 L 446 655 L 445 653 Q 438 654 436 651 L 430 651 Z M 453 651 L 450 652 L 448 656 L 452 657 L 459 667 L 459 677 L 457 678 L 455 681 L 459 683 L 473 683 L 475 681 L 471 676 Q 470 667 473 664 L 484 655 L 482 651 Q 473 649 470 654 L 471 657 L 470 659 Q 471 662 467 660 L 466 658 L 467 654 Q 463 649 453 651 Z " /><path fill="rgb(254,254,254)" stroke="rgb(254,254,254)" stroke-width="1" opacity="1" d="M 9 16 L 13 16 L 13 17.5 L 9 19 L 9 16 Z " /><path fill="rgb(254,254,254)" stroke="rgb(254,254,254)" stroke-width="1" opacity="1" d="M 23 18 Q 27.1 16.7 26 20 Q 21.9 21.3 23 18 Z " /><path fill="rgb(254,254,254)" stroke="rgb(254,254,254)" stroke-width="1" opacity="1" d="M 42.5 18 L 45 19.5 L 41.5 20 L 42.5 18 Z " /><path fill="rgb(254,254,254)" stroke="rgb(254,254,254)" stroke-width="1" opacity="1" d="M 260.5 51 L 270.5 52 L 278 57.5 L 281.5 64 Q 285 61.5 292.5 63 L 299 68.5 Q 301.3 71.7 300 78.5 L 298 83 L 289.5 87 L 238.5 87 Q 231.9 86.1 229 81.5 L 227 73.5 L 228 69.5 L 231.5 65 L 239.5 62 L 247 64 L 250 57 Q 252.7 58.1 252 55.5 L 260.5 51 Z " /><path fill="rgb(254,254,254)" stroke="rgb(254,254,254)" stroke-width="1" opacity="1" d="M 333.5 136 Q 349.8 136.2 356 146.5 L 359 154 L 365.5 152 L 373.5 152 L 383 158.5 L 386.5 165 Q 393.8 163.8 396 167.5 L 286 168 Q 286.3 158 293.5 154 Q 297.9 150.9 306.5 152 L 311.5 154 Q 315.1 145.1 322.5 140 L 333.5 136 Z " /><path fill="rgb(254,254,254)" stroke="rgb(254,254,254)" stroke-width="1" opacity="1" d="M 136.5 152 L 143.5 153 L 152 159.5 L 154 165 L 159.5 163 L 163.5 163 L 170 167.5 L 105.5 168 L 107.5 165 Q 109.8 162.3 115.5 163 L 121 165 Q 121.9 159.1 126.5 156 L 131.5 153 L 136.5 152 Z " /><path fill="rgb(254,254,254)" stroke="rgb(254,254,254)" stroke-width="1" opacity="1" d="M 389.5 190 Q 397.6 189.4 400 194.5 L 398.5 197 L 395.5 197 L 391.5 194 L 388 196.5 L 387 202.5 L 389.5 206 L 391.5 207 L 395 204.5 Q 394.2 201.9 397.5 203 L 400 204 Q 400.8 208.7 396.5 210 L 390.5 211 L 386.5 210 L 382 205.5 L 381 199.5 L 384 192 L 389.5 190 Z " /><path fill="rgb(254,254,254)" stroke="rgb(254,254,254)" stroke-width="1" opacity="1" d="M 247 191 L 260.5 191 L 263 193.5 Q 264.5 200.5 260.5 202 L 252 203 L 252 210 L 247 210 L 247 191 Z M 254 194 L 252 196 Q 250 201 257 199 L 258 197 Q 258 194 254 194 Z " /><path fill="rgb(254,254,254)" stroke="rgb(254,254,254)" stroke-width="1" opacity="1" d="M 267 191 L 273 191 L 273 198 L 280 198 L 280 191 L 286 191 L 286 209.5 L 285.5 210 L 280 210 L 280 202 L 273 202 L 273 210 L 267 210 L 267 191 Z " /><path fill="rgb(254,254,254)" stroke="rgb(254,254,254)" stroke-width="1" opacity="1" d="M 296.5 191 L 303 191 L 303 193.5 L 309 210 L 303 210 L 302.5 207 L 295 207 L 295 210 L 289 210 L 294 194.5 L 296.5 191 Z M 300 196 L 297 201 Q 296 205 301 203 L 300 196 Z " /><path fill="rgb(254,254,254)" stroke="rgb(254,254,254)" stroke-width="1" opacity="1" d="M 312 191 L 327.5 191 L 330 193.5 Q 331.3 199.8 327.5 201 L 326 201.5 Q 330.3 204.4 331 210 Q 325.6 211.5 324 208.5 L 319.5 202 L 318 202.5 L 318 210 L 312 210 L 312 191 Z M 318 194 L 318 199 L 323 198 Q 325 199 324 196 Q 323 193 318 194 Z " /><path fill="rgb(254,254,254)" stroke="rgb(254,254,254)" stroke-width="1" opacity="1" d="M 334 191 L 341.5 191 L 342 192.5 L 345.5 202 L 348 191 L 356 191 L 356 210 L 352 209.5 L 352 196.5 L 351 196.5 L 348 210 L 343 210 L 343 208.5 L 339.5 197 L 339 210 L 334 209.5 L 334 191 Z " /><path fill="rgb(254,254,254)" stroke="rgb(254,254,254)" stroke-width="1" opacity="1" d="M 366 191 Q 372.1 189.3 374 192.5 L 374 195.5 L 380 210 L 374.5 210 L 374 208.5 L 372.5 207 L 365 207 Q 366.8 212.3 359.5 210 L 360 208.5 L 366 191 Z M 370 196 L 367 202 L 367 203 L 372 203 L 370 196 Z " /><path fill="rgb(254,254,254)" stroke="rgb(254,254,254)" stroke-width="1" opacity="1" d="M 403.5 191 Q 408.8 189.8 410 192.5 L 412 197 Q 414.7 198.1 414 195.5 L 417.5 191 L 423 191.5 L 416 201.5 L 416 210 L 410 210 L 410 201.5 L 403.5 191 Z " /><path fill="rgb(254,254,254)" stroke="rgb(254,254,254)" stroke-width="1" opacity="1" d="M 116 250 L 139.5 250 L 148.5 252 L 157.5 252 L 173.5 255 L 183.5 255 L 199.5 258 L 208.5 258 L 209.5 259 L 240 262 L 240 514.5 L 239.5 515 L 231 515 Q 231.8 510 228.5 508 L 226.5 507 L 213 507 L 212 502.5 L 226.5 502 L 228 500.5 L 228 262 L 129 262 L 129 501.5 L 129.5 502 L 197.5 502 L 198 503.5 L 197 507 L 116.5 507 L 116 506.5 L 116 250 Z " /><path fill="rgb(254,254,254)" stroke="rgb(254,254,254)" stroke-width="1" opacity="1" d="M 256 264 L 266 265 L 266 303.5 L 267.5 305 Q 273.8 306.8 275.5 304 L 388.5 304 L 392 306.5 L 400 317 L 256 317 L 256 264 Z " /><path fill="rgb(254,254,254)" stroke="rgb(254,254,254)" stroke-width="1" opacity="1" d="M 256 329 L 405.5 329 L 407 330.5 L 407 604 L 256 604 L 256 329 Z M 270 343 L 268 345 L 268 450 Q 268 443 265 440 L 259 441 L 259 448 L 258 449 Q 257 462 267 466 L 268 467 L 268 501 L 270 502 L 394 502 L 395 501 L 395 466 L 399 465 L 405 456 L 404 442 L 403 440 L 397 441 L 396 451 L 395 451 L 395 343 L 270 343 Z M 269 514 L 269 593 L 394 593 L 395 592 L 395 514 L 269 514 Z " /><path fill="rgb(254,254,254)" stroke="rgb(254,254,254)" stroke-width="1" opacity="1" d="M 424.5 343 L 428 348 Q 430.7 346.9 430 349.5 L 436 355.5 L 436 500.5 L 437.5 502 L 482.5 502 L 483 503.5 L 492 514.5 L 424 515 L 424.5 343 Z " /><path fill="rgb(254,254,254)" stroke="rgb(254,254,254)" stroke-width="1" opacity="1" d="M 457.5 380 L 459.5 383 Q 455.1 384.1 457.5 380 Z " /><path fill="rgb(254,254,254)" stroke="rgb(254,254,254)" stroke-width="1" opacity="1" d="M 535 471 L 537 471.5 L 537 479.5 L 535.5 487 L 535 471 Z " /><path fill="rgb(254,254,254)" stroke="rgb(254,254,254)" stroke-width="1" opacity="1" d="M 545.5 477 L 547 478.5 L 547 515 L 526.5 515 L 526 513.5 L 539 498.5 L 543 489.5 L 545.5 477 Z " /><path fill="rgb(254,254,254)" stroke="rgb(254,254,254)" stroke-width="1" opacity="1" d="M 492.5 502 L 525 502.5 Q 518.5 507.3 517 515 L 506.5 515 L 494 505.5 L 492.5 502 Z " /><path fill="rgb(254,254,254)" stroke="rgb(254,254,254)" stroke-width="1" opacity="1" d="M 91 523 L 94 523 L 94 529 L 90 527.5 L 91 523 Z " /><path fill="rgb(254,254,254)" stroke="rgb(254,254,254)" stroke-width="1" opacity="1" d="M 82 580 L 85 580.5 L 85 601.5 L 86 604 L 82 603.5 L 82 580 Z " /><path fill="rgb(254,254,254)" stroke="rgb(254,254,254)" stroke-width="1" opacity="1" d="M 210 657 Q 213.8 656 215 658.5 L 216 663.5 Q 214.7 667 210 666 L 210 657 Z " /><path fill="rgb(254,254,254)" stroke="rgb(254,254,254)" stroke-width="1" opacity="1" d="M 317.5 657 Q 320.8 655.9 320 658.5 L 321 661.5 L 318.5 665 L 316 665 L 316 658.5 L 317.5 657 Z " /><path fill="rgb(254,254,254)" stroke="rgb(254,254,254)" stroke-width="1" opacity="1" d="M 279 664 L 282 665.5 L 283 670 L 277 669.5 L 279 664 Z " /><path fill="rgb(254,254,254)" stroke="rgb(254,254,254)" stroke-width="1" opacity="1" d="M 394.5 664 Q 396.8 663.3 396 665.5 L 398 670 L 392.5 670 L 392 668.5 L 394.5 664 Z " /><path fill="rgb(2,69,105)" stroke="rgb(2,69,105)" stroke-width="1" opacity="1" d="M 267 262 L 393.5 262 L 395 263.5 L 395 303.5 L 394.5 304 L 267 304 L 267 262 Z " /><path fill="rgb(2,69,105)" stroke="rgb(2,69,105)" stroke-width="1" opacity="1" d="M 129 263 L 227 263 L 227 499.5 L 225.5 501 L 130.5 501 L 129 499.5 L 129 263 Z M 176 352 L 173 355 L 173 364 L 164 364 L 161 367 L 161 382 L 164 384 L 173 384 L 173 394 L 176 396 L 190 396 L 191 395 L 192 395 L 192 384 L 202 384 L 203 383 L 204 383 L 204 365 L 202 364 L 192 364 L 192 353 L 190 352 L 176 352 Z " /><path fill="rgb(2,69,105)" stroke="rgb(2,69,105)" stroke-width="1" opacity="1" d="M 437 263 L 534 263 L 534 350 L 525 351 L 525 294 L 456 294 L 456 383.5 L 456.5 384 L 478.5 384 L 479 387.5 L 481 397.5 Q 477.8 404.5 479 415 L 472.5 416 L 465 413 Q 466.7 420.1 462.5 422 L 454 429.5 L 449 437.5 L 447 442.5 L 447 446.5 L 445.5 448 Q 443.3 447.3 444 449.5 L 446 452.5 L 446 460.5 L 449 470.5 Q 453.3 479.3 460.5 485 Q 467.9 491.9 480 493 L 482 501 L 437.5 501 L 437 500.5 L 437 263 Z " /><path fill="rgb(2,69,105)" stroke="rgb(2,69,105)" stroke-width="1" opacity="1" d="M 479 330 L 491 330.5 L 489 333.5 L 493.5 341 L 497 340 L 495 331 L 493 330.5 L 500 330 L 500 342 L 479 342 L 479 330 Z M 487 334 L 485 337 Q 483 338 486 339 L 489 337 Q 490 333 487 334 Z " /><path fill="rgb(2,69,105)" stroke="rgb(2,69,105)" stroke-width="1" opacity="1" d="M 269 344 L 394.5 344 L 395 344.5 L 395 352.5 L 394 353.5 L 394 451.5 L 391.5 454 L 389.5 455 L 273.5 455 L 269 451.5 L 269 344 Z M 309 393 L 305 395 L 302 399 L 303 408 L 308 411 L 315 411 L 318 409 L 320 405 L 319 398 Q 317 392 309 393 Z M 324 394 L 322 396 L 322 410 L 324 411 L 326 410 L 327 410 L 327 405 L 334 404 Q 336 402 335 397 Q 332 392 324 394 Z M 339 394 L 337 396 L 337 409 Q 339 413 346 411 L 347 408 Q 346 405 342 406 Q 341 403 346 404 L 347 402 Q 346 399 342 400 L 342 398 L 347 398 L 347 394 L 339 394 Z M 352 394 L 350 396 L 350 410 L 353 411 L 354 410 L 355 402 L 359 410 L 362 411 L 365 410 L 365 404 L 366 403 Q 368 397 365 396 L 365 394 L 361 394 L 360 401 L 357 397 Q 356 393 352 394 Z " /><path fill="rgb(2,69,105)" stroke="rgb(2,69,105)" stroke-width="1" opacity="1" d="M 179 358 L 187 358 L 187 368.5 L 188.5 370 L 198 370 L 198 378 L 188.5 378 L 187 379.5 L 187 388.5 L 185.5 390 L 179 390 L 179 379.5 L 177.5 378 L 167 378 L 167 370 L 177.5 370 L 179 368.5 L 179 358 Z " /><path fill="rgb(2,69,105)" stroke="rgb(2,69,105)" stroke-width="1" opacity="1" d="M 470.5 358 L 507 358.5 L 501.5 363 L 470.5 363 L 469 359.5 L 470.5 358 Z " /><path fill="rgb(2,69,105)" stroke="rgb(2,69,105)" stroke-width="1" opacity="1" d="M 471.5 364 L 499 364.5 L 496.5 367 L 472 367.5 L 495 368.5 L 493.5 370 L 470 370 L 471 367.5 L 470 365.5 L 471.5 364 Z " /><path fill="rgb(2,69,105)" stroke="rgb(2,69,105)" stroke-width="1" opacity="1" d="M 308 398 Q 312.6 396.8 314 399.5 L 315 403.5 L 314 406 L 309.5 407 Q 306 406 307 400.5 L 308 398 Z " /><path fill="rgb(2,69,105)" stroke="rgb(2,69,105)" stroke-width="1" opacity="1" d="M 327 398 Q 331.5 396.5 330 401 Q 325.5 402.5 327 398 Z " /><path fill="rgb(2,69,105)" stroke="rgb(2,69,105)" stroke-width="1" opacity="1" d="M 269.5 463 L 275.5 465 L 388.5 465 L 395 463 L 394 466.5 L 394 501 L 335.5 501 L 334.5 500 L 333.5 501 L 269 501 L 269.5 463 Z " /><path fill="rgb(2,69,105)" stroke="rgb(2,69,105)" stroke-width="1" opacity="1" d="M 522.5 468 Q 525.8 470.7 532.5 470 L 534 471.5 L 534 492.5 L 527.5 501 L 490.5 501 L 490 499.5 Q 487.2 497.5 488 493 L 496.5 492 Q 504.3 490.3 508.5 485 L 514 484.5 L 513 481.5 L 522.5 468 Z " /><path fill="rgb(2,69,105)" stroke="rgb(2,69,105)" stroke-width="1" opacity="1" d="M 416.5 600 L 417.5 602 L 416.5 600 Z " /><path fill="rgb(170,165,157)" stroke="rgb(170,165,157)" stroke-width="1" opacity="1" d="M 8 14 Q 12.6 12.8 14 15.5 L 12.5 15 Q 6.8 13.4 9 19 L 13.5 18 L 12.5 20 Q 7.3 18.3 9 23.5 L 8 23.5 L 8 14 Z " /><path fill="rgb(170,165,157)" stroke="rgb(170,165,157)" stroke-width="1" opacity="1" d="M 113.5 16 L 118.5 19 L 122.5 16 L 118.5 21 L 113.5 16 Z " /><path fill="rgb(170,165,157)" stroke="rgb(170,165,157)" stroke-width="1" opacity="1" d="M 17.5 17 L 20 17.5 Q 16.9 19 17.5 24 L 17.5 17 Z " /><path fill="rgb(170,165,157)" stroke="rgb(170,165,157)" stroke-width="1" opacity="1" d="M 23.5 17 L 27 18.5 L 25.5 18 L 22.5 19 L 23.5 17 Z " /><path fill="rgb(170,165,157)" stroke="rgb(170,165,157)" stroke-width="1" opacity="1" d="M 37.5 17 L 38 23.5 L 37 23.5 L 37.5 17 Z " /><path fill="rgb(170,165,157)" stroke="rgb(170,165,157)" stroke-width="1" opacity="1" d="M 41.5 17 Q 45.3 16.3 46 18.5 L 46 21 L 41 21 L 41 23 L 45.5 22 L 44.5 24 Q 40.8 24.8 40 22.5 Q 39 18 41.5 17 Z M 41 18 Q 40 22 45 20 Q 46 16 41 18 Z " /><path fill="rgb(170,165,157)" stroke="rgb(170,165,157)" stroke-width="1" opacity="1" d="M 52.5 17 L 53 18.5 L 51 19.5 L 52.5 17 Z " /><path fill="rgb(170,165,157)" stroke="rgb(170,165,157)" stroke-width="1" opacity="1" d="M 22.5 20 L 27 20.5 L 22.5 21 L 22.5 20 Z " /><path fill="rgb(170,165,157)" stroke="rgb(170,165,157)" stroke-width="1" opacity="1" d="M 55.5 20 L 56 21.5 L 54.5 24 L 53 21.5 L 55 21.5 L 55.5 20 Z " /><path fill="rgb(170,165,157)" stroke="rgb(170,165,157)" stroke-width="1" opacity="1" d="M 22.5 22 L 25.5 23 L 27 22.5 L 23.5 24 L 22.5 22 Z " /><path fill="rgb(170,165,157)" stroke="rgb(170,165,157)" stroke-width="1" opacity="1" d="M 31.5 22 Q 33.8 21.3 33 23.5 L 31.5 22 Z " /><path fill="rgb(170,165,157)" stroke="rgb(170,165,157)" stroke-width="1" opacity="1" d="M 49 22 L 51 22.5 L 49 23.5 L 49 22 Z " /><path fill="rgb(170,165,157)" stroke="rgb(170,165,157)" stroke-width="1" opacity="1" d="M 86 168 L 101 168.5 L 87 169 L 86.5 187 L 86 168 Z " /><path fill="rgb(170,165,157)" stroke="rgb(170,165,157)" stroke-width="1" opacity="1" d="M 171.5 168 L 284 168.5 L 171.5 169 L 171.5 168 Z " /><path fill="rgb(170,165,157)" stroke="rgb(170,165,157)" stroke-width="1" opacity="1" d="M 574.5 168 L 576 168.5 L 576 224.5 L 575 224.5 L 575 169.5 L 574.5 168 Z " /><path fill="rgb(170,165,157)" stroke="rgb(170,165,157)" stroke-width="1" opacity="1" d="M 247.5 190 L 258 190.5 L 247 191 L 247 209.5 L 252 210 L 252.5 203 L 253 209.5 Q 252 212 247.5 211 L 246 209.5 L 246 191.5 L 247.5 190 Z " /><path fill="rgb(170,165,157)" stroke="rgb(170,165,157)" stroke-width="1" opacity="1" d="M 267.5 190 L 273 190.5 L 267.5 191 L 267.5 190 Z " /><path fill="rgb(170,165,157)" stroke="rgb(170,165,157)" stroke-width="1" opacity="1" d="M 280.5 190 L 286 190.5 L 280.5 191 L 280.5 190 Z " /><path fill="rgb(170,165,157)" stroke="rgb(170,165,157)" stroke-width="1" opacity="1" d="M 296.5 190 L 302 190.5 L 295.5 192 L 296.5 190 Z " /><path fill="rgb(170,165,157)" stroke="rgb(170,165,157)" stroke-width="1" opacity="1" d="M 312.5 190 L 325 190.5 L 312.5 191 L 312.5 190 Z " /><path fill="rgb(170,165,157)" stroke="rgb(170,165,157)" stroke-width="1" opacity="1" d="M 334.5 190 L 342 190.5 L 334.5 191 L 334.5 190 Z " /><path fill="rgb(170,165,157)" stroke="rgb(170,165,157)" stroke-width="1" opacity="1" d="M 349.5 190 Q 355.5 188.5 357 191.5 L 357 209.5 L 355.5 211 Q 351.8 211.8 351 209.5 L 351 199.5 L 350 198.5 L 351.5 196 L 352 210 L 356 209.5 L 356 191 L 349.5 191 L 349.5 190 Z " /><path fill="rgb(170,165,157)" stroke="rgb(170,165,157)" stroke-width="1" opacity="1" d="M 366.5 190 L 373 190.5 L 366.5 191 L 366.5 190 Z " /><path fill="rgb(170,165,157)" stroke="rgb(170,165,157)" stroke-width="1" opacity="1" d="M 402.5 190 Q 408.5 188.5 410 191.5 L 408.5 191 L 402.5 191 L 402.5 190 Z " /><path fill="rgb(170,165,157)" stroke="rgb(170,165,157)" stroke-width="1" opacity="1" d="M 417.5 190 L 423 190.5 L 416.5 192 L 417.5 190 Z " /><path fill="rgb(170,165,157)" stroke="rgb(170,165,157)" stroke-width="1" opacity="1" d="M 253.5 194 L 256 194.5 L 253 195 L 252.5 199 L 252 195.5 L 253.5 194 Z " /><path fill="rgb(170,165,157)" stroke="rgb(170,165,157)" stroke-width="1" opacity="1" d="M 318.5 194 L 323 194.5 L 318.5 195 L 318.5 194 Z " /><path fill="rgb(170,165,157)" stroke="rgb(170,165,157)" stroke-width="1" opacity="1" d="M 257.5 196 L 258 197.5 L 256 198.5 L 257.5 196 Z " /><path fill="rgb(170,165,157)" stroke="rgb(170,165,157)" stroke-width="1" opacity="1" d="M 299.5 196 L 298.5 198 L 299.5 196 Z " /><path fill="rgb(170,165,157)" stroke="rgb(170,165,157)" stroke-width="1" opacity="1" d="M 273.5 197 L 280 197.5 L 273.5 198 L 273.5 197 Z " /><path fill="rgb(170,165,157)" stroke="rgb(170,165,157)" stroke-width="1" opacity="1" d="M 318.5 198 L 322 198.5 L 318.5 199 L 318.5 198 Z " /><path fill="rgb(170,165,157)" stroke="rgb(170,165,157)" stroke-width="1" opacity="1" d="M 387.5 198 L 388 202.5 L 387 202.5 L 387.5 198 Z " /><path fill="rgb(170,165,157)" stroke="rgb(170,165,157)" stroke-width="1" opacity="1" d="M 344.5 199 L 346 201.5 L 344 200.5 L 344.5 199 Z " /><path fill="rgb(170,165,157)" stroke="rgb(170,165,157)" stroke-width="1" opacity="1" d="M 398.5 203 L 401 204.5 L 399.5 204 L 398.5 203 Z " /><path fill="rgb(170,165,157)" stroke="rgb(170,165,157)" stroke-width="1" opacity="1" d="M 383.5 207 L 385.5 210 L 383.5 207 Z " /><path fill="rgb(170,165,157)" stroke="rgb(170,165,157)" stroke-width="1" opacity="1" d="M 288.5 209 L 294 210.5 L 289.5 211 L 288.5 209 Z " /><path fill="rgb(170,165,157)" stroke="rgb(170,165,157)" stroke-width="1" opacity="1" d="M 309.5 209 L 310 211 L 304 210.5 L 309.5 209 Z " /><path fill="rgb(170,165,157)" stroke="rgb(170,165,157)" stroke-width="1" opacity="1" d="M 324.5 209 Q 325.7 211.3 330.5 210 L 332 209.5 Q 330.8 212.3 325.5 211 L 324.5 209 Z " /><path fill="rgb(170,165,157)" stroke="rgb(170,165,157)" stroke-width="1" opacity="1" d="M 267.5 210 L 272 210.5 L 267.5 211 L 267.5 210 Z " /><path fill="rgb(170,165,157)" stroke="rgb(170,165,157)" stroke-width="1" opacity="1" d="M 280.5 210 L 286 210.5 L 280.5 211 L 280.5 210 Z " /><path fill="rgb(170,165,157)" stroke="rgb(170,165,157)" stroke-width="1" opacity="1" d="M 313.5 210 L 318 210.5 L 313.5 211 L 313.5 210 Z " /><path fill="rgb(170,165,157)" stroke="rgb(170,165,157)" stroke-width="1" opacity="1" d="M 334.5 210 L 338 210.5 L 334.5 211 L 334.5 210 Z " /><path fill="rgb(170,165,157)" stroke="rgb(170,165,157)" stroke-width="1" opacity="1" d="M 343.5 210 L 347 210.5 L 343.5 211 L 343.5 210 Z " /><path fill="rgb(170,165,157)" stroke="rgb(170,165,157)" stroke-width="1" opacity="1" d="M 359.5 210 L 365 210.5 L 359.5 211 L 359.5 210 Z " /><path fill="rgb(170,165,157)" stroke="rgb(170,165,157)" stroke-width="1" opacity="1" d="M 374.5 210 L 380 210.5 L 374.5 211 L 374.5 210 Z " /><path fill="rgb(170,165,157)" stroke="rgb(170,165,157)" stroke-width="1" opacity="1" d="M 410.5 210 L 415 210.5 L 410.5 211 L 410.5 210 Z " /><path fill="rgb(170,165,157)" stroke="rgb(170,165,157)" stroke-width="1" opacity="1" d="M 86.5 223 L 87 225.5 L 86 225.5 L 86.5 223 Z " /><path fill="rgb(170,165,157)" stroke="rgb(170,165,157)" stroke-width="1" opacity="1" d="M 89.5 231 Q 96.3 233.3 94 244.5 L 93 244.5 L 93 235.5 L 89.5 231 Z " /><path fill="rgb(170,165,157)" stroke="rgb(170,165,157)" stroke-width="1" opacity="1" d="M 571.5 232 L 569.5 235 L 571.5 232 Z " /><path fill="rgb(170,165,157)" stroke="rgb(170,165,157)" stroke-width="1" opacity="1" d="M 567.5 235 L 568 350.5 L 567 350.5 L 567.5 235 Z " /><path fill="rgb(170,165,157)" stroke="rgb(170,165,157)" stroke-width="1" opacity="1" d="M 117.5 249 L 134 249.5 L 117.5 250 L 117.5 249 Z " /><path fill="rgb(170,165,157)" stroke="rgb(170,165,157)" stroke-width="1" opacity="1" d="M 143.5 250 L 239.5 250 L 240 250.5 L 240 261.5 L 240.5 263 L 236.5 261 Q 230.2 262.8 228.5 260 L 220.5 260 L 219.5 259 L 194.5 257 L 177.5 254 L 168.5 254 L 160.5 252 L 143.5 251 L 143.5 250 Z " /><path fill="rgb(170,165,157)" stroke="rgb(170,165,157)" stroke-width="1" opacity="1" d="M 256 250 L 407 250 L 407 317 L 401.5 318 L 256.5 318 L 255 316.5 L 255 263.5 L 256 262.5 L 256 250 Z M 266 262 L 267 266 L 267 304 L 266 265 L 263 264 Q 256 263 256 265 L 256 317 L 401 317 L 390 305 L 395 304 L 395 263 L 395 262 L 266 262 Z " /><path fill="rgb(170,165,157)" stroke="rgb(170,165,157)" stroke-width="1" opacity="1" d="M 424 250 L 547 250 L 547 349 L 535.5 349 L 535 348.5 L 535 262 L 436 262 L 435.5 355 L 424.5 343 L 423.5 515 L 423 341.5 L 424 340.5 L 424 250 Z " /><path fill="rgb(170,165,157)" stroke="rgb(170,165,157)" stroke-width="1" opacity="1" d="M 129.5 262 L 226.5 262 L 228 263.5 L 227.5 272 L 227 263 L 129.5 263 L 129.5 262 Z " /><path fill="rgb(170,165,157)" stroke="rgb(170,165,157)" stroke-width="1" opacity="1" d="M 456 294 L 525 294 L 525 351 L 519 352 L 519 299 L 462 299 L 462 378.5 L 462.5 379 L 486.5 379 L 487 380.5 Q 485.2 384.8 483.5 382 L 479 381 L 478.5 383 L 462.5 383 Q 461.2 385.3 460 382.5 L 456 377.5 L 456 294 Z " /><path fill="rgb(170,165,157)" stroke="rgb(170,165,157)" stroke-width="1" opacity="1" d="M 482 316 L 496.5 316 L 498 317.5 Q 496.8 321.3 500.5 320 L 503 323.5 L 503 349.5 L 502 352 L 478.5 352 L 478 350.5 L 477 349.5 L 477 323.5 L 479.5 320 Q 484.1 321.2 482 316 Z M 478 329 L 478 342 L 480 343 L 501 343 L 501 329 L 478 329 Z " /><path fill="rgb(170,165,157)" stroke="rgb(170,165,157)" stroke-width="1" opacity="1" d="M 255.5 329 L 256 604.5 L 255 604.5 L 255.5 329 Z " /><path fill="rgb(170,165,157)" stroke="rgb(170,165,157)" stroke-width="1" opacity="1" d="M 491.5 331 L 495 333.5 Q 495.8 335.8 493.5 335 L 491.5 336 L 490 332.5 L 491.5 331 Z " /><path fill="rgb(170,165,157)" stroke="rgb(170,165,157)" stroke-width="1" opacity="1" d="M 486.5 335 Q 488.8 334.3 488 336.5 L 486.5 335 Z " /><path fill="rgb(170,165,157)" stroke="rgb(170,165,157)" stroke-width="1" opacity="1" d="M 268.5 344 L 269 354.5 L 268 354.5 L 268.5 344 Z " /><path fill="rgb(170,165,157)" stroke="rgb(170,165,157)" stroke-width="1" opacity="1" d="M 436.5 356 L 437 500.5 L 436 500.5 L 436.5 356 Z " /><path fill="rgb(170,165,157)" stroke="rgb(170,165,157)" stroke-width="1" opacity="1" d="M 578.5 362 L 579.5 364 L 578.5 362 Z " /><path fill="rgb(170,165,157)" stroke="rgb(170,165,157)" stroke-width="1" opacity="1" d="M 586.5 370 L 587.5 372 L 586.5 370 Z " /><path fill="rgb(170,165,157)" stroke="rgb(170,165,157)" stroke-width="1" opacity="1" d="M 261.5 440 Q 265.3 439.3 266 441.5 L 267.5 450 L 269 449.5 Q 268.5 454.5 272.5 455 L 390.5 455 L 396 450.5 L 397 441 L 402.5 440 L 404 441.5 L 405 453.5 Q 403.2 461.2 397.5 465 L 395.5 466 L 395 463 L 391.5 464 L 272.5 464 L 268 463 L 269 466.5 L 265.5 464 L 262 461.5 L 258 452.5 L 258 448.5 L 259 447.5 L 259 441 L 261.5 440 Z " /><path fill="rgb(170,165,157)" stroke="rgb(170,165,157)" stroke-width="1" opacity="1" d="M 587.5 448 L 585.5 451 L 587.5 448 Z " /><path fill="rgb(170,165,157)" stroke="rgb(170,165,157)" stroke-width="1" opacity="1" d="M 580.5 455 L 579.5 457 L 580.5 455 Z " /><path fill="rgb(170,165,157)" stroke="rgb(170,165,157)" stroke-width="1" opacity="1" d="M 567.5 464 L 568 500.5 L 567 500.5 L 567.5 464 Z " /><path fill="rgb(170,165,157)" stroke="rgb(170,165,157)" stroke-width="1" opacity="1" d="M 535.5 470 L 537 470.5 L 535 471 L 535 486.5 L 536 487.5 L 534.5 490 L 534 471.5 L 535.5 470 Z " /><path fill="rgb(170,165,157)" stroke="rgb(170,165,157)" stroke-width="1" opacity="1" d="M 545 471 Q 548.5 469.9 547 477.5 L 545 477.5 L 544.5 479 L 544 475.5 L 545 471 Z " /><path fill="rgb(170,165,157)" stroke="rgb(170,165,157)" stroke-width="1" opacity="1" d="M 547.5 479 L 548 514.5 L 547 514.5 L 547.5 479 Z " /><path fill="rgb(170,165,157)" stroke="rgb(170,165,157)" stroke-width="1" opacity="1" d="M 536.5 482 L 537 484.5 L 536 484.5 L 536.5 482 Z " /><path fill="rgb(170,165,157)" stroke="rgb(170,165,157)" stroke-width="1" opacity="1" d="M 538.5 498 L 537.5 500 L 538.5 498 Z " /><path fill="rgb(170,165,157)" stroke="rgb(170,165,157)" stroke-width="1" opacity="1" d="M 78.5 499 L 76.5 502 L 78.5 499 Z " /><path fill="rgb(170,165,157)" stroke="rgb(170,165,157)" stroke-width="1" opacity="1" d="M 526.5 501 L 524.5 504 L 526.5 501 Z " /><path fill="rgb(170,165,157)" stroke="rgb(170,165,157)" stroke-width="1" opacity="1" d="M 536.5 501 L 533.5 505 L 536.5 501 Z " /><path fill="rgb(170,165,157)" stroke="rgb(170,165,157)" stroke-width="1" opacity="1" d="M 491.5 502 L 492.5 504 L 491.5 502 Z " /><path fill="rgb(170,165,157)" stroke="rgb(170,165,157)" stroke-width="1" opacity="1" d="M 197.5 504 L 198 506.5 L 196.5 508 L 116.5 508 L 116.5 507 L 196.5 507 L 197.5 504 Z " /><path fill="rgb(170,165,157)" stroke="rgb(170,165,157)" stroke-width="1" opacity="1" d="M 485.5 506 L 486.5 508 L 485.5 506 Z " /><path fill="rgb(170,165,157)" stroke="rgb(170,165,157)" stroke-width="1" opacity="1" d="M 65.5 507 L 75 507.5 L 65.5 508 L 65.5 507 Z " /><path fill="rgb(170,165,157)" stroke="rgb(170,165,157)" stroke-width="1" opacity="1" d="M 90.5 507 L 94 507.5 L 90.5 508 L 90.5 507 Z " /><path fill="rgb(170,165,157)" stroke="rgb(170,165,157)" stroke-width="1" opacity="1" d="M 213.5 507 L 227 507.5 L 213.5 508 L 213.5 507 Z " /><path fill="rgb(170,165,157)" stroke="rgb(170,165,157)" stroke-width="1" opacity="1" d="M 521.5 507 L 520.5 509 L 521.5 507 Z " /><path fill="rgb(170,165,157)" stroke="rgb(170,165,157)" stroke-width="1" opacity="1" d="M 228.5 508 L 229.5 510 L 228.5 508 Z " /><path fill="rgb(170,165,157)" stroke="rgb(170,165,157)" stroke-width="1" opacity="1" d="M 498.5 509 L 499.5 511 L 498.5 509 Z " /><path fill="rgb(170,165,157)" stroke="rgb(170,165,157)" stroke-width="1" opacity="1" d="M 488.5 510 L 491.5 514 L 488.5 510 Z " /><path fill="rgb(170,165,157)" stroke="rgb(170,165,157)" stroke-width="1" opacity="1" d="M 519.5 510 L 519 511.5 L 518.5 513 L 518 511.5 L 519.5 510 Z " /><path fill="rgb(170,165,157)" stroke="rgb(170,165,157)" stroke-width="1" opacity="1" d="M 501.5 511 L 502.5 513 L 501.5 511 Z " /><path fill="rgb(170,165,157)" stroke="rgb(170,165,157)" stroke-width="1" opacity="1" d="M 527.5 511 L 526.5 513 L 527.5 511 Z " /><path fill="rgb(170,165,157)" stroke="rgb(170,165,157)" stroke-width="1" opacity="1" d="M 80.5 512 Q 85 511 86 513.5 Q 86.8 518.3 83.5 519 Q 79.5 519.5 79 516.5 Q 78.3 512.8 80.5 512 Z " /><path fill="rgb(170,165,157)" stroke="rgb(170,165,157)" stroke-width="1" opacity="1" d="M 203.5 512 Q 208 511 209 513.5 Q 209.8 518.3 206.5 519 L 202 518 Q 200.8 513.4 203.5 512 Z " /><path fill="rgb(170,165,157)" stroke="rgb(170,165,157)" stroke-width="1" opacity="1" d="M 230.5 512 L 231 514.5 L 230 514.5 L 230.5 512 Z " /><path fill="rgb(170,165,157)" stroke="rgb(170,165,157)" stroke-width="1" opacity="1" d="M 504.5 513 L 505.5 515 L 504.5 513 Z " /><path fill="rgb(170,165,157)" stroke="rgb(170,165,157)" stroke-width="1" opacity="1" d="M 269 514 L 393.5 514 L 394 514.5 L 394 522 L 278 522 L 278 591.5 L 277.5 592 L 269 592 L 269 514 Z " /><path fill="rgb(170,165,157)" stroke="rgb(170,165,157)" stroke-width="1" opacity="1" d="M 64.5 522 L 70 522.5 L 64.5 523 L 64.5 522 Z " /><path fill="rgb(170,165,157)" stroke="rgb(170,165,157)" stroke-width="1" opacity="1" d="M 65.5 530 L 75 530.5 L 65.5 531 L 65.5 530 Z " /><path fill="rgb(170,165,157)" stroke="rgb(170,165,157)" stroke-width="1" opacity="1" d="M 63.5 531 L 62 533.5 L 61.5 535 L 61 533.5 L 63.5 531 Z " /><path fill="rgb(170,165,157)" stroke="rgb(170,165,157)" stroke-width="1" opacity="1" d="M 577.5 533 L 578 600.5 L 577 600.5 L 577.5 533 Z " /><path fill="rgb(170,165,157)" stroke="rgb(170,165,157)" stroke-width="1" opacity="1" d="M 80.5 535 Q 85 534 86 536.5 Q 87.9 541.9 84.5 541 L 81.5 542 Q 78.3 541.3 79 536.5 L 80.5 535 Z " /><path fill="rgb(170,165,157)" stroke="rgb(170,165,157)" stroke-width="1" opacity="1" d="M 203.5 535 Q 208 534 209 536.5 Q 209.8 541.3 206.5 542 Q 202.8 542.8 202 540.5 Q 201 536 203.5 535 Z " /><path fill="rgb(170,165,157)" stroke="rgb(170,165,157)" stroke-width="1" opacity="1" d="M 413 542 L 465.5 542 L 466 546 L 414.5 546 L 414 544.5 L 413 542 Z " /><path fill="rgb(170,165,157)" stroke="rgb(170,165,157)" stroke-width="1" opacity="1" d="M 64.5 545 L 75 545.5 L 64.5 546 L 64.5 545 Z " /><path fill="rgb(170,165,157)" stroke="rgb(170,165,157)" stroke-width="1" opacity="1" d="M 45.5 556 L 45 557.5 L 44.5 563 L 44 557.5 L 45.5 556 Z " /><path fill="rgb(170,165,157)" stroke="rgb(170,165,157)" stroke-width="1" opacity="1" d="M 45.5 564 L 47.5 567 L 45.5 564 Z " /><path fill="rgb(170,165,157)" stroke="rgb(170,165,157)" stroke-width="1" opacity="1" d="M 82.5 579 L 85 579.5 L 82 580 L 81.5 605 L 81 580.5 L 82.5 579 Z " /><path fill="rgb(170,165,157)" stroke="rgb(170,165,157)" stroke-width="1" opacity="1" d="M 576.5 602 L 574.5 605 L 576.5 602 Z " /><path fill="rgb(170,165,157)" stroke="rgb(170,165,157)" stroke-width="1" opacity="1" d="M 27.5 605 L 28 617.5 L 27 617.5 L 27.5 605 Z " /><path fill="rgb(170,165,157)" stroke="rgb(170,165,157)" stroke-width="1" opacity="1" d="M 646.5 605 L 647 623.5 L 646 624.5 L 646 641 L 27.5 641 L 27 640.5 L 27 623 L 33.5 623 L 34.5 624 L 646 624 L 646.5 605 Z " /><path fill="rgb(170,165,157)" stroke="rgb(170,165,157)" stroke-width="1" opacity="1" d="M 213.5 651 L 216 651.5 L 213.5 652 L 213.5 651 Z " /><path fill="rgb(170,165,157)" stroke="rgb(170,165,157)" stroke-width="1" opacity="1" d="M 233.5 651 L 238 651.5 L 233.5 652 L 233.5 651 Z " /><path fill="rgb(170,165,157)" stroke="rgb(170,165,157)" stroke-width="1" opacity="1" d="M 251.5 651 L 259 651.5 L 251.5 652 L 251.5 651 Z " /><path fill="rgb(170,165,157)" stroke="rgb(170,165,157)" stroke-width="1" opacity="1" d="M 318.5 651 L 324 651.5 L 318.5 652 L 318.5 651 Z " /><path fill="rgb(170,165,157)" stroke="rgb(170,165,157)" stroke-width="1" opacity="1" d="M 343.5 651 L 346 651.5 L 343.5 652 L 343.5 651 Z " /><path fill="rgb(170,165,157)" stroke="rgb(170,165,157)" stroke-width="1" opacity="1" d="M 368.5 651 L 375 651.5 L 368.5 652 L 368.5 651 Z " /><path fill="rgb(170,165,157)" stroke="rgb(170,165,157)" stroke-width="1" opacity="1" d="M 452.5 651 L 463 651.5 L 452.5 652 L 452.5 651 Z " /><path fill="rgb(170,165,157)" stroke="rgb(170,165,157)" stroke-width="1" opacity="1" d="M 473.5 651 L 482 651.5 L 473.5 652 L 473.5 651 Z " /><path fill="rgb(170,165,157)" stroke="rgb(170,165,157)" stroke-width="1" opacity="1" d="M 277.5 652 L 276.5 654 L 277.5 652 Z " /><path fill="rgb(170,165,157)" stroke="rgb(170,165,157)" stroke-width="1" opacity="1" d="M 303.5 652 L 303 653.5 L 302.5 655 L 302 653.5 L 303.5 652 Z " /><path fill="rgb(170,165,157)" stroke="rgb(170,165,157)" stroke-width="1" opacity="1" d="M 376.5 652 L 378 655.5 L 375 657.5 L 377 653.5 L 376.5 652 Z " /><path fill="rgb(170,165,157)" stroke="rgb(170,165,157)" stroke-width="1" opacity="1" d="M 399.5 652 L 401.5 655 L 399.5 652 Z " /><path fill="rgb(170,165,157)" stroke="rgb(170,165,157)" stroke-width="1" opacity="1" d="M 338.5 653 L 340 656.5 L 338 655.5 L 338.5 653 Z " /><path fill="rgb(170,165,157)" stroke="rgb(170,165,157)" stroke-width="1" opacity="1" d="M 444.5 653 L 445.5 655 L 444.5 653 Z " /><path fill="rgb(170,165,157)" stroke="rgb(170,165,157)" stroke-width="1" opacity="1" d="M 390.5 654 L 391 657.5 L 390 657.5 L 390.5 654 Z " /><path fill="rgb(170,165,157)" stroke="rgb(170,165,157)" stroke-width="1" opacity="1" d="M 422.5 654 L 418.5 659 L 422.5 654 Z " /><path fill="rgb(170,165,157)" stroke="rgb(170,165,157)" stroke-width="1" opacity="1" d="M 227.5 655 L 228.5 657 L 227.5 655 Z " /><path fill="rgb(170,165,157)" stroke="rgb(170,165,157)" stroke-width="1" opacity="1" d="M 304.5 656 L 306 659.5 L 305 659.5 L 304.5 656 Z " /><path fill="rgb(170,165,157)" stroke="rgb(170,165,157)" stroke-width="1" opacity="1" d="M 317.5 656 L 319 656.5 L 316.5 658 L 317.5 656 Z " /><path fill="rgb(170,165,157)" stroke="rgb(170,165,157)" stroke-width="1" opacity="1" d="M 214.5 657 L 216 659.5 L 215 659.5 L 214.5 657 Z " /><path fill="rgb(170,165,157)" stroke="rgb(170,165,157)" stroke-width="1" opacity="1" d="M 478.5 657 L 475.5 661 L 478.5 657 Z " /><path fill="rgb(170,165,157)" stroke="rgb(170,165,157)" stroke-width="1" opacity="1" d="M 241.5 658 L 242 662.5 L 241 662.5 L 241.5 658 Z " /><path fill="rgb(170,165,157)" stroke="rgb(170,165,157)" stroke-width="1" opacity="1" d="M 429.5 658 L 428.5 660 L 429.5 658 Z " /><path fill="rgb(170,165,157)" stroke="rgb(170,165,157)" stroke-width="1" opacity="1" d="M 249.5 659 L 250 662.5 L 249 662.5 L 249.5 659 Z " /><path fill="rgb(170,165,157)" stroke="rgb(170,165,157)" stroke-width="1" opacity="1" d="M 455.5 661 L 457.5 664 L 455.5 661 Z " /><path fill="rgb(170,165,157)" stroke="rgb(170,165,157)" stroke-width="1" opacity="1" d="M 320.5 662 L 321 663.5 L 319 664.5 L 320.5 662 Z " /><path fill="rgb(170,165,157)" stroke="rgb(170,165,157)" stroke-width="1" opacity="1" d="M 374.5 662 L 375 670.5 L 374 670.5 L 374.5 662 Z " /><path fill="rgb(170,165,157)" stroke="rgb(170,165,157)" stroke-width="1" opacity="1" d="M 331.5 663 L 329.5 666 L 331.5 663 Z " /><path fill="rgb(170,165,157)" stroke="rgb(170,165,157)" stroke-width="1" opacity="1" d="M 394.5 663 L 393.5 665 L 394.5 663 Z " /><path fill="rgb(170,165,157)" stroke="rgb(170,165,157)" stroke-width="1" opacity="1" d="M 446.5 663 L 445.5 665 L 446.5 663 Z " /><path fill="rgb(170,165,157)" stroke="rgb(170,165,157)" stroke-width="1" opacity="1" d="M 215.5 664 L 214.5 666 L 215.5 664 Z " /><path fill="rgb(170,165,157)" stroke="rgb(170,165,157)" stroke-width="1" opacity="1" d="M 459.5 667 L 460 674.5 L 459 674.5 L 459.5 667 Z " /><path fill="rgb(170,165,157)" stroke="rgb(170,165,157)" stroke-width="1" opacity="1" d="M 305.5 668 L 306 675.5 L 305 675.5 L 305.5 668 Z " /><path fill="rgb(170,165,157)" stroke="rgb(170,165,157)" stroke-width="1" opacity="1" d="M 330.5 668 L 332.5 671 L 330.5 668 Z " /><path fill="rgb(170,165,157)" stroke="rgb(170,165,157)" stroke-width="1" opacity="1" d="M 348.5 668 L 349.5 670 L 348 669.5 L 348 677.5 L 349 678.5 L 347 677.5 L 347 669.5 L 348.5 668 Z " /><path fill="rgb(170,165,157)" stroke="rgb(170,165,157)" stroke-width="1" opacity="1" d="M 242.5 669 L 244 669.5 L 241.5 671 L 242.5 669 Z " /><path fill="rgb(170,165,157)" stroke="rgb(170,165,157)" stroke-width="1" opacity="1" d="M 248.5 669 Q 251 670 250 674.5 L 249 674.5 L 248.5 669 Z " /><path fill="rgb(170,165,157)" stroke="rgb(170,165,157)" stroke-width="1" opacity="1" d="M 319.5 670 L 321 672.5 L 320 672.5 L 319.5 670 Z " /><path fill="rgb(170,165,157)" stroke="rgb(170,165,157)" stroke-width="1" opacity="1" d="M 341.5 670 L 342 676.5 L 341 676.5 L 341.5 670 Z " /><path fill="rgb(170,165,157)" stroke="rgb(170,165,157)" stroke-width="1" opacity="1" d="M 210.5 671 L 217 671.5 L 210.5 672 L 210.5 671 Z " /><path fill="rgb(170,165,157)" stroke="rgb(170,165,157)" stroke-width="1" opacity="1" d="M 429.5 671 L 431.5 674 L 429.5 671 Z " /><path fill="rgb(170,165,157)" stroke="rgb(170,165,157)" stroke-width="1" opacity="1" d="M 443.5 672 L 442.5 674 L 443.5 672 Z " /><path fill="rgb(170,165,157)" stroke="rgb(170,165,157)" stroke-width="1" opacity="1" d="M 230.5 673 L 231 676.5 L 229 677.5 L 230.5 673 Z " /><path fill="rgb(170,165,157)" stroke="rgb(170,165,157)" stroke-width="1" opacity="1" d="M 276.5 675 L 284 675.5 L 276.5 676 L 276.5 675 Z " /><path fill="rgb(170,165,157)" stroke="rgb(170,165,157)" stroke-width="1" opacity="1" d="M 390.5 675 L 399 675.5 L 390.5 676 L 389.5 677 L 390.5 675 Z " /><path fill="rgb(170,165,157)" stroke="rgb(170,165,157)" stroke-width="1" opacity="1" d="M 471.5 676 L 472.5 678 L 471.5 676 Z " /><path fill="rgb(170,165,157)" stroke="rgb(170,165,157)" stroke-width="1" opacity="1" d="M 242.5 677 L 243.5 679 L 242.5 677 Z " /><path fill="rgb(170,165,157)" stroke="rgb(170,165,157)" stroke-width="1" opacity="1" d="M 274.5 677 L 275.5 679 L 274.5 677 Z " /><path fill="rgb(170,165,157)" stroke="rgb(170,165,157)" stroke-width="1" opacity="1" d="M 304.5 677 L 303 679.5 L 301.5 682 L 302 680.5 L 304.5 677 Z " /><path fill="rgb(170,165,157)" stroke="rgb(170,165,157)" stroke-width="1" opacity="1" d="M 375.5 677 L 377.5 680 L 375.5 677 Z " /><path fill="rgb(170,165,157)" stroke="rgb(170,165,157)" stroke-width="1" opacity="1" d="M 419.5 677 L 421.5 680 L 419.5 677 Z " /><path fill="rgb(170,165,157)" stroke="rgb(170,165,157)" stroke-width="1" opacity="1" d="M 363.5 678 L 362.5 680 L 363.5 678 Z " /><path fill="rgb(170,165,157)" stroke="rgb(170,165,157)" stroke-width="1" opacity="1" d="M 399.5 678 L 398.5 680 L 399.5 678 Z " /><path fill="rgb(170,165,157)" stroke="rgb(170,165,157)" stroke-width="1" opacity="1" d="M 415.5 678 L 417 680.5 L 416 680.5 L 415.5 678 Z " /><path fill="rgb(170,165,157)" stroke="rgb(170,165,157)" stroke-width="1" opacity="1" d="M 456.5 678 L 456 679.5 L 457 681.5 L 455 680.5 L 456.5 678 Z " /><path fill="rgb(170,165,157)" stroke="rgb(170,165,157)" stroke-width="1" opacity="1" d="M 444.5 679 L 443.5 681 L 442 680.5 L 444.5 679 Z " /><path fill="rgb(170,165,157)" stroke="rgb(170,165,157)" stroke-width="1" opacity="1" d="M 337.5 680 Q 339.8 679.3 339 681.5 L 339.5 683 L 337.5 680 Z " /><path fill="rgb(170,165,157)" stroke="rgb(170,165,157)" stroke-width="1" opacity="1" d="M 197.5 681 L 198.5 683 L 197.5 681 Z " /><path fill="rgb(170,165,157)" stroke="rgb(170,165,157)" stroke-width="1" opacity="1" d="M 318.5 681 L 317.5 683 L 318.5 681 Z " /><path fill="rgb(170,165,157)" stroke="rgb(170,165,157)" stroke-width="1" opacity="1" d="M 362.5 681 L 363.5 683 L 362.5 681 Z " /><path fill="rgb(170,165,157)" stroke="rgb(170,165,157)" stroke-width="1" opacity="1" d="M 377.5 681 L 380 682.5 L 378.5 682 L 377.5 681 Z " /><path fill="rgb(170,165,157)" stroke="rgb(170,165,157)" stroke-width="1" opacity="1" d="M 391.5 681 L 390.5 683 L 391.5 681 Z " /><path fill="rgb(170,165,157)" stroke="rgb(170,165,157)" stroke-width="1" opacity="1" d="M 398.5 681 L 399.5 683 L 398.5 681 Z " /><path fill="rgb(170,165,157)" stroke="rgb(170,165,157)" stroke-width="1" opacity="1" d="M 327.5 683 L 334 683.5 L 327.5 684 L 327.5 683 Z " /><path fill="rgb(170,165,157)" stroke="rgb(170,165,157)" stroke-width="1" opacity="1" d="M 431.5 683 L 434 683.5 L 431.5 684 L 431.5 683 Z " /><path fill="rgb(119,59,12)" stroke="rgb(119,59,12)" stroke-width="1" opacity="1" d="M 178.5 231 L 189.5 237 L 197.5 237 L 207.5 231 L 210.5 231 L 217.5 236 L 228.5 237 L 239.5 231 L 250.5 237 L 259.5 237 L 267.5 232 L 272.5 232 Q 277.1 238.4 289.5 237 L 300.5 231 L 311.5 237 L 319.5 237 L 331.5 231 L 342.5 237 L 350.5 237 L 361.5 231 L 372.5 237 L 381.5 237 L 389.5 232 L 394.5 232 Q 399.1 238.4 411.5 237 L 422.5 231 L 433.5 237 L 441.5 237 L 451.5 231 L 454.5 231 L 461.5 236 L 472.5 237 L 480.5 232 L 487.5 232 Q 491.5 238.5 503.5 237 L 511.5 232 L 516.5 232 Q 521.1 238.4 533.5 237 L 541.5 232 L 547.5 232 Q 551.5 238.5 563.5 237 L 565.5 236 L 567 237.5 L 567 351.5 Q 566 354 561.5 353 Q 556.4 349.2 548 350 L 548 250 L 423 250 L 422.5 340 L 402 317.5 L 408 317 L 408 250 L 255 250 L 255 263 L 245.5 263 L 240 262 L 240 250.5 L 239.5 250 L 138.5 250 L 137.5 249 L 127.5 249 L 126.5 248 L 118.5 248 L 117.5 247 L 94 245 L 94.5 235 Q 98.2 238.3 106.5 237 L 114.5 232 L 120.5 232 Q 124.5 238.5 136.5 237 L 144.5 232 L 150.5 232 Q 154.5 238.5 166.5 237 L 178.5 231 Z " /><path fill="rgb(119,59,12)" stroke="rgb(119,59,12)" stroke-width="1" opacity="1" d="M 481 311 L 498.5 311 L 499 313.5 L 497.5 315 L 482.5 315 L 481 311 Z " /><path fill="rgb(119,59,12)" stroke="rgb(119,59,12)" stroke-width="1" opacity="1" d="M 494.5 335 Q 496.8 334.3 496 336.5 L 497 338.5 L 493.5 341 Q 490.3 339.8 491 336 L 494.5 335 Z " /><path fill="rgb(119,59,12)" stroke="rgb(119,59,12)" stroke-width="1" opacity="1" d="M 485.5 336 L 487 339 L 484 337.5 L 485.5 336 Z " /><path fill="rgb(119,59,12)" stroke="rgb(119,59,12)" stroke-width="1" opacity="1" d="M 565.5 465 L 567 465.5 L 567 499.5 L 563 496.5 L 548 479.5 L 548 470 L 560.5 468 L 565.5 465 Z " /><path fill="rgb(119,59,12)" stroke="rgb(119,59,12)" stroke-width="1" opacity="1" d="M 537 471 L 544 471 L 544 482.5 L 541 493.5 Q 536.2 503.2 528 509.5 L 522 520.5 L 521 529 L 572.5 529 L 577 532.5 L 577 601.5 L 574.5 604 L 572.5 605 L 544.5 605 L 542.5 605 L 420.5 604 L 419.5 605 L 407 605 L 407 529 L 513.5 529 L 512.5 527 Q 498.2 520.3 488 509.5 L 481 497.5 L 480 493 L 486.5 493 L 488 494.5 L 494 507 L 513.5 520 L 516 520 L 520 509.5 L 534 492.5 L 537 485.5 L 537 471 Z M 413 533 L 412 536 Q 411 542 413 546 L 416 547 L 416 562 L 414 562 L 412 564 L 412 572 L 416 573 L 416 590 L 414 590 L 412 592 L 412 600 Q 413 602 417 601 L 417 600 L 415 600 L 415 596 L 465 596 L 465 601 L 473 601 L 473 590 L 465 590 L 465 587 L 489 587 L 490 586 L 488 578 L 488 576 L 465 576 L 465 573 L 473 573 L 473 562 L 465 562 L 466 559 L 482 559 L 482 552 L 490 552 L 490 548 L 466 548 L 465 546 L 473 545 L 473 533 L 447 533 L 445 535 L 445 542 L 441 542 L 441 535 L 440 533 L 413 533 Z M 480 533 L 478 535 L 478 544 L 480 545 L 506 545 L 506 535 L 505 533 L 480 533 Z M 513 533 L 511 535 L 511 544 Q 513 547 514 544 L 514 535 L 513 533 Z M 521 533 L 521 545 L 539 545 L 539 535 L 538 533 L 521 533 Z M 546 533 L 544 535 L 544 544 L 546 545 L 572 545 L 572 535 L 571 533 L 546 533 Z M 496 548 L 494 550 L 495 552 L 514 552 L 514 548 L 496 548 Z M 521 548 Q 519 553 523 552 Q 525 547 521 548 Z M 529 548 L 527 550 L 528 552 L 553 552 L 553 559 L 555 559 L 556 558 L 556 550 L 555 548 L 529 548 Z M 478 562 L 478 572 L 480 573 L 487 573 L 486 568 L 486 566 L 482 566 L 482 562 L 478 562 Z M 553 562 L 553 566 L 549 568 Q 548 573 550 573 L 572 573 L 572 562 L 553 562 Z M 548 576 L 546 583 L 546 587 L 555 587 L 556 586 L 556 578 Q 554 574 548 576 Z M 478 590 L 478 601 L 493 601 L 491 593 L 491 590 L 478 590 Z M 545 590 L 544 595 Q 543 601 545 601 L 572 601 L 572 590 L 545 590 Z " /><path fill="rgb(119,59,12)" stroke="rgb(119,59,12)" stroke-width="1" opacity="1" d="M 79.5 499 L 85.5 499 L 89 501 L 90 508 L 197.5 508 Q 198.5 508 198 503.5 L 199 501 L 210.5 501 L 212 502.5 L 213 508 L 226.5 508 L 229 509 Q 231 512 230 519.5 L 227.5 522 L 213 522 L 213 528.5 L 213.5 529 L 255 529 L 255 605 L 224.5 605 L 223.5 604 L 222.5 605 L 89.5 605 L 86 601.5 L 86 579 L 81 579.5 L 81 605 L 68 605 L 68 568 L 52.5 568 L 48.5 567 L 45 563.5 Q 43.5 555.5 48.5 554 L 50.5 553 L 75 553 L 75 545 L 64.5 545 L 62 542.5 L 62 533.5 L 64.5 531 L 75 531 L 75 522 L 64.5 522 L 62 519.5 L 62 510.5 L 64.5 508 L 75 508 Q 74.8 501.5 79.5 499 Z M 82 511 L 79 514 L 80 518 Q 79 521 85 519 L 87 516 L 86 512 L 82 511 Z M 205 511 L 202 512 L 201 515 L 202 518 Q 203 520 208 519 L 209 514 Q 208 510 205 511 Z M 90 522 L 90 529 L 91 529 L 198 529 L 197 526 L 197 522 L 90 522 Z M 230 533 L 230 543 L 229 544 L 230 545 L 249 545 L 250 544 L 250 535 L 249 533 L 230 533 Z M 82 534 Q 78 535 79 541 Q 80 543 85 542 Q 87 542 87 538 Q 87 534 82 534 Z M 205 534 L 201 538 Q 200 542 204 542 L 208 541 Q 211 542 209 537 Q 208 534 205 534 Z M 107 548 L 108 553 L 135 553 L 135 548 L 107 548 Z M 140 548 L 141 553 L 168 553 L 168 548 L 140 548 Z M 173 548 L 173 553 L 198 553 L 198 550 L 197 548 L 173 548 Z M 213 548 L 214 553 L 234 553 L 234 548 L 213 548 Z M 245 562 L 244 566 L 240 568 L 223 568 L 222 572 L 224 573 L 250 573 L 250 562 L 245 562 Z M 222 576 L 222 587 L 234 587 L 234 576 L 222 576 Z M 107 579 L 107 587 L 135 587 Q 136 587 135 581 L 134 579 L 107 579 Z M 140 579 L 140 587 L 168 587 Q 169 587 168 581 L 167 579 L 140 579 Z M 173 579 L 173 587 L 201 587 Q 202 587 201 581 L 200 579 L 173 579 Z M 206 579 L 206 587 L 209 587 L 209 581 L 206 579 Z M 90 590 L 90 600 L 92 601 L 118 601 L 119 600 L 119 592 L 118 590 L 90 590 Z M 123 590 L 123 600 L 125 601 L 151 601 L 151 590 L 123 590 Z M 158 590 L 156 592 L 156 600 L 158 601 L 184 601 L 184 590 L 158 590 Z M 189 590 L 189 601 L 208 601 L 209 600 L 209 592 L 208 590 L 189 590 Z M 224 590 L 222 592 L 222 600 L 224 601 L 250 601 L 250 590 L 224 590 Z " /></svg>